<?xml version="1.0" encoding="UTF-8" standalone="no"?>
<!-- Uploaded to: SVG Repo, www.svgrepo.com, Generator: SVG Repo Mixer Tools -->

<svg
   width="800px"
   height="800px"
   viewBox="0 0 24 24"
   fill="none"
   version="1.1"
   id="svg2"
   sodipodi:docname="data_not_found_icon.svg"
   inkscape:version="1.3.2 (091e20e, 2023-11-25, custom)"
   xmlns:inkscape="http://www.inkscape.org/namespaces/inkscape"
   xmlns:sodipodi="http://sodipodi.sourceforge.net/DTD/sodipodi-0.dtd"
   xmlns="http://www.w3.org/2000/svg"
   xmlns:svg="http://www.w3.org/2000/svg">
  <defs
     id="defs2" />
  <sodipodi:namedview
     id="namedview2"
     pagecolor="#ffffff"
     bordercolor="#000000"
     borderopacity="0.25"
     inkscape:showpageshadow="2"
     inkscape:pageopacity="0.0"
     inkscape:pagecheckerboard="0"
     inkscape:deskcolor="#d1d1d1"
     inkscape:zoom="0.9275"
     inkscape:cx="400"
     inkscape:cy="400"
     inkscape:window-width="2880"
     inkscape:window-height="1514"
     inkscape:window-x="2869"
     inkscape:window-y="-11"
     inkscape:window-maximized="1"
     inkscape:current-layer="svg2" />
  <g
     id="g2">
    <path
       d="m 21.499889,17.50621 c -0.622412,0.49 -1.338772,0.86 -2.113851,1.11 -0.77508,0.25 -1.608877,-0.23 -1.608877,-0.94 v -1.32 c 0,-1.95 -1.855493,-3.53 -4.1455,-3.53 h -3.452625 c -2.2900064,0 -4.145499,1.58 -4.145499,3.53 v 1.58 c 0,0.55 -0.5284631,1 -1.1743623,1 H 4.3307116 c -2.8771878,-0.37 -4.16898653,-2.36 -4.16898653,-4.14 0,-1.68 1.15087513,-3.54 3.65226713,-4.06 C 3.1211183,8.40622 3.7082998,6.21622 5.4933303,4.62622 c 2.0316469,-1.81 5.2728877,-2.53 8.0678697,-1.79 2.571853,0.67 4.380372,2.47 5.026271,4.97 2.243032,0.43 4.039806,1.87 4.756167,3.86999 0.77508,2.17 0.07046,4.4 -1.843749,5.83 z"
       fill="#292D32"
       id="path1"
       style="fill:#ff5555;stroke-width:1.08368" />
    <path
       d="M 14.228872,13.902517 H 9.7711275 c -1.9256244,0 -3.0779665,0.819699 -3.0779665,2.189461 v 3.170943 c 0,1.369761 1.1523421,2.189461 3.0779665,2.189461 h 4.4577445 c 1.925624,0 3.077967,-0.8197 3.077967,-2.189461 v -3.170943 c 0,-1.369762 -1.152343,-2.189461 -3.077967,-2.189461 z m 0.75812,4.907412 c 0.37906,0.269638 0.37906,0.711845 0,0.981483 -0.197112,0.129426 -0.43971,0.194139 -0.69747,0.194139 -0.242599,0 -0.485197,-0.06471 -0.682308,-0.194139 L 12,18.648146 10.407948,19.791412 c -0.197111,0.129426 -0.4397093,0.194139 -0.69747,0.194139 -0.2425983,0 -0.4851967,-0.06471 -0.6823079,-0.194139 -0.37906,-0.269638 -0.37906,-0.711845 0,-0.981483 l 1.6072139,-1.143265 -1.6072139,-1.13248 c -0.37906,-0.269638 -0.37906,-0.711844 0,-0.981482 0.3790599,-0.269638 1.0007189,-0.269638 1.3797779,0 L 12,16.695967 13.607214,15.552702 c 0.379059,-0.269638 1.000718,-0.269638 1.379778,0 0.37906,0.269638 0.37906,0.711844 0,0.981482 l -1.607214,1.13248 z"
       fill="#292D32"
       id="path2"
       style="fill:#ff5555;stroke-width:1.27881" />
  </g>
</svg>
