<svg width="65" height="508" viewBox="0 0 65 508" fill="none" xmlns="http://www.w3.org/2000/svg">
<mask id="path-1-inside-1_28_10195" fill="white">
<path d="M32.3724 79.8904L23.3538 101.535L14.3353 123.179C13.6671 124.783 15.2405 126.409 16.8652 125.793L32.3724 119.917L47.8796 125.793C49.5043 126.409 51.0778 124.783 50.4095 123.179L32.3724 79.8904Z"/>
</mask>
<path d="M32.3724 79.8904L23.3538 101.535L14.3353 123.179C13.6671 124.783 15.2405 126.409 16.8652 125.793L32.3724 119.917L47.8796 125.793C49.5043 126.409 51.0778 124.783 50.4095 123.179L32.3724 79.8904Z" fill="white"/>
<path d="M32.3724 79.8904L36.0647 78.3519L32.3724 69.4904L28.6801 78.3519L32.3724 79.8904ZM32.3724 119.917L33.7898 116.176L32.3724 115.639L30.9549 116.176L32.3724 119.917ZM47.8796 125.793L49.297 122.053L49.297 122.053L47.8796 125.793ZM50.4095 123.179L54.1018 121.641L54.1018 121.641L50.4095 123.179ZM14.3353 123.179L10.643 121.641L14.3353 123.179ZM16.8652 125.793L15.4478 122.053L15.4478 122.053L16.8652 125.793ZM23.3538 101.535L27.0461 103.073L27.0461 103.073L23.3538 101.535ZM18.2827 129.534L33.7898 123.657L30.9549 116.176L15.4478 122.053L18.2827 129.534ZM30.9549 123.657L46.4622 129.534L49.297 122.053L33.7898 116.176L30.9549 123.657ZM54.1018 121.641L36.0647 78.3519L28.6801 81.4288L46.7172 124.718L54.1018 121.641ZM46.4622 129.534C51.3683 131.393 56.1197 126.484 54.1018 121.641L46.7172 124.718C46.0358 123.082 47.6403 121.425 49.297 122.053L46.4622 129.534ZM10.643 121.641C8.62508 126.484 13.3765 131.393 18.2827 129.534L15.4478 122.053C17.1045 121.425 18.709 123.082 18.0276 124.718L10.643 121.641ZM28.6801 78.3519L19.6615 99.9964L27.0461 103.073L36.0647 81.4288L28.6801 78.3519ZM19.6615 99.9964L10.643 121.641L18.0276 124.718L27.0461 103.073L19.6615 99.9964Z" fill="#0070D6" mask="url(#path-1-inside-1_28_10195)"/>
<rect x="31.3823" y="118.51" width="1.98047" height="135.662" rx="0.990234" stroke="#0070D6" stroke-width="1.98047"/>
<rect x="31.3823" y="246.25" width="1.98047" height="181.213" fill="#0070D6"/>
<ellipse cx="32.3726" cy="254.172" rx="7.92187" ry="7.92187" fill="#0070D6"/>
</svg>

