<svg width="600" height="600" viewBox="0 0 600 600" fill="none" xmlns="http://www.w3.org/2000/svg">
<g id="Group 18">
<g id="Compass watchface">
<rect width="600" height="600" fill="white" fill-opacity="0.5"/>
<g id="Watchface">
<g id="frame">
<path id="frame_2" d="M300 534.875C429.718 534.875 534.875 429.718 534.875 300C534.875 170.282 429.718 65.125 300 65.125C170.282 65.125 65.125 170.282 65.125 300C65.125 429.718 170.282 534.875 300 534.875ZM505.75 300C505.75 413.633 413.633 505.75 300 505.75C186.367 505.75 94.25 413.633 94.25 300C94.25 186.367 186.367 94.25 300 94.25C413.633 94.25 505.75 186.367 505.75 300Z" fill="white" stroke="#D9D9D9"/>
</g>
<path id="center-cross" d="M300 93.75V506.25M506.25 300H93.75" stroke="black" stroke-opacity="0.05"/>
<g id="Tickmarks - Compass">
<path id="tick-marks" d="M307.368 89.1861L307.696 79.8168M311.046 89.3472L311.536 79.985M314.721 89.5744L315.375 80.2222M318.391 89.8625L319.208 80.5232M322.055 90.2141L323.035 80.8904M325.713 90.6291L326.855 81.3239M329.363 91.1102L330.668 81.8264M333.004 91.6536L334.47 82.394M336.635 92.263L338.262 83.0304M340.254 92.9333L342.043 83.7306M343.862 93.6664L345.811 84.4963M347.456 94.4633L349.565 85.3286M351.036 95.3232L353.304 86.2267M354.6 96.2458L357.027 87.1902M358.148 97.2286L360.732 88.2168M361.679 98.2725L364.42 89.3071M365.19 99.3792L368.087 90.463M368.681 100.546L371.733 91.6822M372.152 101.777L375.358 92.9672M375.601 103.067L378.96 94.3142M379.025 104.418L382.537 95.7253M382.427 105.824L386.09 97.1947M385.803 107.293L389.616 98.7282M389.152 108.82L393.114 100.323M392.475 110.403L396.585 101.977M395.769 112.045L400.026 103.691M399.035 113.745L403.436 105.468M402.27 115.503L406.815 107.303M405.474 117.314L410.162 109.195M408.646 119.181L413.475 111.145M411.786 121.103L416.754 113.152M414.891 123.082L419.997 115.219M417.961 125.114L423.203 117.342M420.995 127.199L426.372 119.52M423.992 129.338L429.503 121.754M426.952 131.528L432.594 124.041M429.872 133.769L435.644 126.382M432.754 136.06L438.653 128.775M435.595 138.402L441.621 131.22M438.394 140.795L444.545 133.72M441.151 143.234L447.424 136.267M443.865 145.721L450.259 138.864M446.535 148.254L453.048 141.51M449.161 150.834L455.79 144.205M451.741 153.461L458.485 146.948M454.276 156.132L461.132 149.738M456.763 158.846L463.73 152.573M459.202 161.605L466.277 155.454M461.593 164.403L468.774 158.377M463.935 167.244L471.221 161.344M466.227 170.123L473.614 164.351M468.468 173.045L475.955 167.403M470.657 176.002L478.242 170.492M472.795 179L480.475 173.623M474.881 182.034L482.653 176.792M476.912 185.103L484.775 179.997M478.89 188.209L486.841 183.241M480.814 191.349L488.85 186.52M482.683 194.519L490.802 189.832M484.496 197.725L492.695 193.18M486.252 200.962L494.53 196.56M487.953 204.227L496.306 199.971M489.596 207.521L498.022 203.411M491.181 210.844L499.677 206.882M492.707 214.194L501.272 210.381M494.176 217.569L502.805 213.906M495.584 220.97L504.277 217.458M496.934 224.397L505.686 221.037M498.223 227.845L507.032 224.638M499.452 231.315L508.316 228.263M500.62 234.807L509.536 231.91M501.726 238.317L510.692 235.576M502.772 241.847L511.784 239.263M503.756 245.396L512.812 242.97M504.679 248.959L513.775 246.691M505.538 252.537L514.673 250.428M506.335 256.132L515.505 254.182M507.069 259.74L516.272 257.951M507.74 263.36L516.972 261.732M508.347 266.989L517.607 265.522M508.892 270.631L518.175 269.326M509.372 274.281L518.677 273.138M509.789 277.94L519.113 276.96M510.142 281.603L519.481 280.786M510.43 285.275L519.782 284.621M510.655 288.95L520.017 288.46M510.815 292.626L520.184 292.299M510.911 296.308L520.285 296.144M510.944 299.989H520.319M510.911 303.67L520.285 303.834M510.815 307.352L520.184 307.679M510.655 311.029L520.017 311.52M510.43 314.703L519.782 315.357M510.141 318.372L519.481 319.189M509.789 322.039L519.112 323.019M509.372 325.697L518.677 326.84M508.892 329.347L518.176 330.652M508.348 332.989L517.607 334.456M507.74 336.62L516.973 338.248M507.069 340.241L516.271 342.03M506.335 343.849L515.505 345.798M505.538 347.443L514.673 349.552M504.679 351.021L513.776 353.289M503.757 354.585L512.813 357.011M502.773 358.132L511.785 360.717M501.727 361.662L510.693 364.403M500.621 365.171L509.537 368.068M499.452 368.663L508.316 371.715M498.223 372.133L507.033 375.339M496.934 375.58L505.686 378.939M495.585 379.005L504.277 382.517M494.176 382.405L502.806 386.069M492.707 385.783L501.272 389.596M491.181 389.131L499.678 393.093M489.596 392.456L498.023 396.565M487.954 395.749L496.307 400.005M486.253 399.015L494.531 403.417M484.497 402.251L492.696 406.796M482.684 405.455L490.803 410.143M480.815 408.628L488.851 413.457M478.891 411.768L486.842 416.736M476.913 414.873L484.776 419.979M474.881 417.944L482.654 423.186M472.796 420.979L480.476 426.357M470.657 423.976L478.242 429.486M468.467 426.934L475.955 432.576M466.227 429.854L473.614 435.626M463.935 432.736L471.221 438.636M461.593 435.577L468.775 441.603M459.203 438.377L466.278 444.528M456.764 441.135L463.731 447.408M454.276 443.849L461.133 450.243M451.742 446.519L458.486 453.032M449.161 449.146L455.791 455.775M446.536 451.728L453.049 458.472M443.865 454.263L450.259 461.119M441.151 456.749L447.424 463.716M438.394 459.189L444.544 466.264M435.594 461.581L441.621 468.763M432.753 463.925L438.653 471.21M429.872 466.215L435.644 473.603M426.952 468.453L432.594 475.94M423.992 470.646L429.502 478.23M420.995 472.782L426.373 480.462M417.961 474.869L423.203 482.641M414.891 476.901L419.997 484.764M411.786 478.88L416.754 486.83M408.647 480.803L413.475 488.839M405.474 482.672L410.162 490.791M402.271 484.487L406.816 492.686M399.035 486.244L403.437 494.521M395.77 487.943L400.026 496.296M392.475 489.584L396.585 498.01M389.152 491.168L393.114 499.665M385.802 492.696L389.615 501.26M382.426 494.164L386.089 502.794M379.024 495.573L382.536 504.266M375.599 496.923L378.959 505.675M372.151 498.211L375.357 507.021M368.68 499.439L371.732 508.303M365.188 500.608L368.085 509.524M361.678 501.713L364.419 510.679M358.148 502.76L360.732 511.772M354.6 503.742L357.027 512.797M351.036 504.665L353.304 513.762M347.456 505.526L349.565 514.66M343.862 506.323L345.811 515.493M340.255 507.059L342.044 516.261M336.635 507.731L338.263 516.964M333.004 508.338L334.47 517.598M329.363 508.882L330.668 518.166M325.713 509.363L326.856 518.668M322.055 509.778L323.035 519.101M318.39 510.129L319.207 519.468M314.72 510.417L315.374 519.769M311.046 510.644L311.536 520.006M307.367 510.804L307.694 520.173M303.686 510.9L303.85 520.274M300.005 510.931V520.306M296.324 510.899L296.16 520.272M292.643 510.802L292.316 520.172M288.965 510.644L288.474 520.006M285.29 510.419L284.636 519.771M281.62 510.128L280.802 519.468M277.955 509.774L276.975 519.098M274.297 509.357L273.154 518.662M270.647 508.876L269.342 518.16M267.005 508.333L265.539 517.592M263.374 507.728L261.746 516.96M259.754 507.055L257.965 516.258M256.146 506.322L254.197 515.492M252.552 505.525L250.443 514.66M248.973 504.668L246.705 513.764M245.408 503.747L242.982 512.803M241.86 502.764L239.276 511.776M238.331 501.718L235.59 510.684M234.82 500.609L231.923 509.526M231.328 499.44L228.276 508.304M227.858 498.209L224.651 507.019M224.41 496.922L221.05 505.674M220.985 495.573L217.473 504.266M217.583 494.162L213.92 502.792M214.207 492.694L210.394 501.258M210.857 491.169L206.895 499.665M207.534 489.583L203.424 498.009M204.239 487.939L199.983 496.292M200.974 486.236L196.572 494.514M197.738 484.481L193.193 492.681M194.534 482.668L189.846 490.787M191.361 480.798L186.533 488.834M188.222 478.877L183.254 486.827M185.117 476.9L180.011 484.762M182.047 474.87L176.805 482.642M179.013 472.785L173.636 480.464M176.016 470.648L170.506 478.233M173.057 468.456L167.415 475.943M170.136 466.217L164.365 473.605M167.256 463.924L161.356 471.209M164.415 461.582L158.389 468.764M161.616 459.191L155.465 466.267M158.858 456.754L152.585 463.721M156.144 454.266L149.75 461.122M153.473 451.733L146.961 458.476M150.847 449.153L144.218 455.782M148.267 446.528L141.523 453.04M145.733 443.857L138.877 450.25M143.246 441.143L136.279 447.416M140.806 438.386L133.73 444.537M138.415 435.585L131.233 441.611M136.073 432.747L128.787 438.647M133.781 429.866L126.394 435.638M131.54 426.946L124.053 432.588M129.35 423.986L121.766 429.497M127.212 420.989L119.533 426.366M125.127 417.954L117.355 423.197M123.095 414.883L115.233 419.989M121.117 411.78L113.167 416.748M119.193 408.64L111.157 413.468M117.325 405.467L109.206 410.154M115.512 402.264L107.313 406.809M113.755 399.029L105.478 403.431M112.056 395.764L103.703 400.02M110.414 392.47L101.987 396.58M108.828 389.147L100.332 393.109M107.302 385.796L98.7379 389.61M105.834 382.422L97.2044 386.085M104.425 379.018L95.7329 382.53M103.076 375.592L94.3233 378.952M101.787 372.141L92.9769 375.348M100.558 368.674L91.6937 371.726M99.3898 365.184L90.4737 368.081M98.2821 361.674L89.3167 364.415M97.2362 358.142L88.2244 360.726M96.2523 354.595L87.1968 357.021M95.3306 351.029L86.234 353.297M94.4711 347.449L85.3364 349.558M93.6744 343.855L84.5043 345.804M92.9401 340.247L83.7373 342.035M92.2689 336.626L83.0363 338.254M91.6612 332.993L82.4016 334.459M91.117 329.351L81.8332 330.655M90.6361 325.701L81.331 326.843M90.2196 322.042L80.8959 323.022M89.8668 318.377L80.5275 319.194M89.5782 314.707L80.2261 315.361M89.3537 311.034L79.9916 311.524M89.1935 307.355L79.8242 307.682M89.0971 303.674L79.7235 303.837M89.0645 299.993H79.6895M89.0968 296.312L79.7232 296.148M89.1929 292.632L79.8236 292.305M89.354 288.953L79.9919 288.462M89.5792 285.279L80.227 284.625M89.8679 281.609L80.5286 280.792M90.2212 277.943L80.8975 276.963M90.6379 274.285L81.3328 273.142M91.1184 270.635L81.8347 269.33M91.6624 266.995L82.4028 265.528M92.2694 263.363L83.0369 261.736M92.9406 259.743L83.7378 257.954M93.6744 256.135L84.5043 254.186M94.471 252.541L85.3363 250.432M95.3305 248.961L86.234 246.693M96.2525 245.399L87.197 242.973M97.2363 241.854L88.2245 239.27M98.2813 238.324L89.3159 235.583M99.3879 234.813L90.4718 231.916M100.556 231.321L91.6921 228.268M101.785 227.851L92.9757 224.645M103.075 224.402L94.3224 221.042M104.423 220.977L95.7311 217.465M105.833 217.576L97.2029 213.913M107.301 214.199L98.7367 210.386M108.828 210.848L100.331 206.886M110.412 207.526L101.986 203.416M112.055 204.23L103.702 199.974M113.755 200.966L105.478 196.565M115.512 197.731L107.312 193.185M117.325 194.527L109.206 189.839M119.193 191.356L111.157 186.527M121.117 188.219L113.166 183.251M123.095 185.113L115.233 180.007M125.127 182.042L117.355 176.8M127.212 179.007L119.533 173.63M129.35 176.008L121.766 170.498M131.541 173.047L124.053 167.405M133.781 170.127L126.394 164.356M136.074 167.248L128.788 161.348M138.415 164.407L131.233 158.381M140.806 161.609L133.73 155.459M143.245 158.851L136.278 152.578M145.732 156.137L138.875 149.744M148.266 153.467L141.522 146.954M150.846 150.843L144.217 144.214M153.472 148.263L146.96 141.519M156.143 145.728L149.749 138.872M158.857 143.242L152.584 136.275M161.614 140.804L155.464 133.729M164.413 138.414L158.387 131.233M167.254 136.071L161.354 128.785M170.135 133.781L164.364 126.393M173.056 131.538L167.414 124.051M176.015 129.347L170.505 121.763M179.012 127.211L173.635 119.531M182.046 125.127L176.804 117.354M185.116 123.094L180.01 115.232M188.221 121.118L183.253 113.167M191.36 119.193L186.531 111.157M194.532 117.325L189.844 109.206M197.736 115.513L193.191 107.314M200.972 113.756L196.57 105.479M204.237 112.055L199.981 103.702M207.532 110.411L203.422 101.985M210.855 108.827L206.893 100.33M214.205 107.3L210.392 98.735M217.581 105.831L213.918 97.2014M220.982 104.422L217.47 95.7299M224.407 103.072L221.047 94.3202M227.855 101.784L224.649 92.9743M231.325 100.554L228.273 91.69M234.816 99.3851L231.919 90.469M238.327 98.2773L235.586 89.312M241.857 97.2331L239.273 88.2213M245.405 96.2492L242.979 87.1936M248.969 95.328L246.701 86.2315M252.549 94.4674L250.44 85.3327M256.143 93.6722L254.194 84.502M259.751 92.9369L257.962 83.7341M263.371 92.2686L261.743 83.036M267.002 91.6616L265.535 82.402M270.643 91.1182L269.338 81.8344M274.293 90.637L273.151 81.3319M277.951 90.2176L276.971 80.894M281.616 89.8645L280.799 80.5252M285.286 89.5763L284.632 80.2241M288.961 89.3518L288.47 79.9897M292.638 89.1918L292.311 79.8225M296.319 89.0954L296.155 79.7218M300 89.0625V79.6875M303.688 89.092L303.851 79.7184" stroke="#707070"/>
</g>
<g id="Tickmarks - Compass_2">
<path id="tick-marks_2" d="M510.938 300.002H529.688M449.155 449.157L462.414 462.416M300 510.94V529.69M150.845 449.157L137.586 462.415M89.0625 300H70.3125M150.845 150.845L137.586 137.587M300 89.0625V70.3125M449.155 150.847L462.414 137.589" stroke="#707070"/>
</g>
<g id="Tickmarks - Compass_3">
<path id="tick-marks_3" d="M300 89.0625V65.625M300 534.375V510.938M510.938 300H534.375M65.625 300H89.0625" stroke="#333333"/>
</g>
<g id="labels">
<g id="90&#194;&#176;">
<g id="LabelFrame">
<path id="north-arrow" fill-rule="evenodd" clip-rule="evenodd" d="M272.351 57.8008L300 11.7188L327.65 57.801C318.575 56.7763 309.349 56.25 300 56.25C290.651 56.25 281.426 56.7763 272.351 57.8008Z" fill="#333333"/>
<path id="N" d="M304.97 41.8911H302.154L296.97 33.0911H296.906C296.917 33.3471 296.927 33.6084 296.938 33.8751C296.949 34.1311 296.959 34.3978 296.97 34.6751C296.991 34.9418 297.007 35.2138 297.018 35.4911C297.029 35.7684 297.039 36.0458 297.05 36.3231V41.8911H295.034V30.4671H297.834L303.002 39.2031H303.05C303.039 38.9578 303.029 38.7071 303.018 38.4511C303.007 38.1951 302.997 37.9338 302.986 37.6671C302.986 37.4004 302.981 37.1338 302.97 36.8671C302.959 36.6004 302.949 36.3338 302.938 36.0671V30.4671H304.97V41.8911Z" fill="white"/>
</g>
<g id="LabelFrame_2">
<path id="S" d="M303.992 565.981C303.992 566.663 303.826 567.255 303.496 567.757C303.165 568.247 302.69 568.626 302.072 568.893C301.453 569.159 300.701 569.293 299.816 569.293C299.41 569.293 299.016 569.266 298.632 569.213C298.258 569.159 297.901 569.085 297.56 568.989C297.218 568.893 296.898 568.775 296.6 568.637V566.541C297.112 566.765 297.656 566.973 298.232 567.165C298.818 567.346 299.4 567.437 299.976 567.437C300.402 567.437 300.749 567.378 301.016 567.261C301.282 567.143 301.48 566.989 301.608 566.797C301.736 566.594 301.8 566.365 301.8 566.109C301.8 565.799 301.704 565.538 301.512 565.325C301.33 565.111 301.064 564.914 300.712 564.733C300.37 564.551 299.965 564.354 299.496 564.141C299.186 564.002 298.872 563.842 298.552 563.661C298.232 563.479 297.933 563.261 297.656 563.005C297.378 562.738 297.154 562.423 296.984 562.061C296.813 561.687 296.728 561.245 296.728 560.733C296.728 560.061 296.882 559.49 297.192 559.021C297.512 558.541 297.96 558.178 298.536 557.933C299.112 557.677 299.784 557.549 300.552 557.549C301.16 557.549 301.73 557.618 302.264 557.757C302.797 557.885 303.346 558.071 303.912 558.317L303.192 560.077C302.69 559.874 302.226 559.714 301.8 559.597C301.373 559.479 300.936 559.421 300.488 559.421C300.157 559.421 299.874 559.474 299.64 559.581C299.405 559.687 299.224 559.831 299.096 560.013C298.978 560.194 298.92 560.413 298.92 560.669C298.92 560.957 299 561.202 299.16 561.405C299.32 561.607 299.565 561.799 299.896 561.981C300.226 562.151 300.642 562.354 301.144 562.589C301.752 562.855 302.264 563.138 302.68 563.437C303.106 563.735 303.432 564.087 303.656 564.493C303.88 564.887 303.992 565.383 303.992 565.981Z" fill="#1A1A1A"/>
</g>
<g id="LabelFrame_3">
<path id="E" d="M567.164 305.754H560.62V294.33H567.164V296.186H562.86V298.89H566.876V300.73H562.86V303.898H567.164V305.754Z" fill="#1A1A1A"/>
</g>
<g id="LabelFrame_4">
<path id="W" d="M44.0233 294.33L41.0793 305.754H38.5673L36.8873 299.466C36.8553 299.338 36.8126 299.157 36.7593 298.922C36.706 298.687 36.6473 298.437 36.5833 298.17C36.53 297.903 36.482 297.653 36.4393 297.418C36.4073 297.183 36.3806 297.002 36.3593 296.874C36.3486 297.002 36.322 297.183 36.2793 297.418C36.2366 297.653 36.1886 297.903 36.1353 298.17C36.082 298.426 36.0233 298.677 35.9593 298.922C35.906 299.157 35.8633 299.349 35.8313 299.498L34.1673 305.754H31.6713L28.7273 294.33H30.9513L32.4713 300.714C32.514 300.906 32.562 301.13 32.6153 301.386C32.6686 301.642 32.722 301.909 32.7753 302.186C32.8286 302.453 32.8766 302.714 32.9193 302.97C32.962 303.226 32.994 303.45 33.0153 303.642C33.0473 303.439 33.0793 303.215 33.1113 302.97C33.154 302.714 33.202 302.453 33.2553 302.186C33.3086 301.919 33.362 301.669 33.4153 301.434C33.4686 301.189 33.5166 300.986 33.5593 300.826L35.3033 294.33H37.4313L39.1753 300.826C39.218 300.986 39.266 301.189 39.3193 301.434C39.3726 301.679 39.426 301.935 39.4793 302.202C39.5326 302.469 39.5806 302.73 39.6233 302.986C39.666 303.242 39.698 303.461 39.7193 303.642C39.7513 303.375 39.7993 303.066 39.8633 302.714C39.9273 302.362 39.9966 302.005 40.0713 301.642C40.1566 301.279 40.226 300.965 40.2793 300.698L41.7993 294.33H44.0233Z" fill="#1A1A1A"/>
</g>
</g>
<g id="45&#194;&#176;">
<g id="LabelFrame_5">
<path id="NE" d="M486.493 120.015H485.021L478.749 110.383H478.685C478.696 110.575 478.707 110.788 478.717 111.023C478.739 111.247 478.755 111.492 478.765 111.759C478.776 112.015 478.781 112.282 478.781 112.559C478.792 112.836 478.797 113.114 478.797 113.391V120.015H477.613V108.591H479.069L485.325 118.191H485.373C485.373 118.052 485.368 117.871 485.357 117.647C485.347 117.423 485.336 117.178 485.325 116.911C485.315 116.634 485.304 116.356 485.293 116.079C485.283 115.791 485.277 115.524 485.277 115.279V108.591H486.493V120.015ZM495.981 120.015H489.629V108.591H495.981V109.727H490.909V113.471H495.677V114.591H490.909V118.879H495.981V120.015Z" fill="#1A1A1A"/>
</g>
<g id="LabelFrame_6">
<path id="SW" d="M109.767 489.465C109.767 490.148 109.602 490.724 109.271 491.193C108.94 491.662 108.466 492.025 107.847 492.281C107.239 492.526 106.53 492.649 105.719 492.649C105.292 492.649 104.882 492.628 104.487 492.585C104.103 492.542 103.751 492.484 103.431 492.409C103.122 492.324 102.844 492.228 102.599 492.121L102.599 490.873C102.983 491.044 103.458 491.198 104.023 491.337C104.588 491.465 105.175 491.529 105.783 491.529C106.359 491.529 106.844 491.454 107.239 491.305C107.644 491.145 107.954 490.921 108.167 490.633C108.38 490.334 108.487 489.977 108.487 489.561C108.487 489.166 108.396 488.836 108.215 488.569C108.044 488.302 107.756 488.062 107.351 487.849C106.946 487.625 106.402 487.396 105.719 487.161C105.228 486.98 104.796 486.788 104.423 486.585C104.06 486.382 103.751 486.153 103.495 485.897C103.25 485.641 103.063 485.342 102.935 485.001C102.807 484.66 102.743 484.265 102.743 483.817C102.743 483.198 102.898 482.676 103.207 482.249C103.516 481.812 103.943 481.481 104.487 481.257C105.042 481.022 105.671 480.905 106.375 480.905C106.994 480.905 107.559 480.964 108.071 481.081C108.583 481.188 109.058 481.342 109.495 481.545L109.079 482.633C108.674 482.462 108.236 482.324 107.767 482.217C107.308 482.1 106.834 482.041 106.343 482.041C105.852 482.041 105.436 482.116 105.095 482.265C104.754 482.404 104.492 482.606 104.311 482.873C104.13 483.14 104.039 483.454 104.039 483.817C104.039 484.233 104.124 484.574 104.295 484.841C104.476 485.108 104.754 485.342 105.127 485.545C105.511 485.748 106.002 485.961 106.599 486.185C107.282 486.43 107.858 486.692 108.327 486.969C108.796 487.246 109.154 487.582 109.399 487.977C109.644 488.361 109.767 488.857 109.767 489.465ZM125.013 481.065L121.957 492.489L120.661 492.489L118.389 484.729C118.325 484.516 118.261 484.302 118.197 484.089C118.143 483.865 118.09 483.657 118.037 483.465C117.994 483.262 117.951 483.086 117.909 482.937C117.877 482.788 117.85 482.67 117.829 482.585C117.818 482.67 117.797 482.788 117.765 482.937C117.743 483.076 117.706 483.246 117.653 483.449C117.61 483.641 117.562 483.844 117.509 484.057C117.455 484.27 117.397 484.489 117.333 484.713L115.109 492.489L113.813 492.489L110.773 481.065L112.117 481.065L113.989 488.297C114.042 488.532 114.095 488.766 114.149 489.001C114.202 489.225 114.25 489.449 114.293 489.673C114.346 489.886 114.389 490.094 114.421 490.297C114.453 490.5 114.485 490.697 114.517 490.889C114.549 490.686 114.581 490.484 114.613 490.281C114.655 490.068 114.703 489.849 114.757 489.625C114.81 489.39 114.863 489.156 114.917 488.921C114.981 488.686 115.045 488.457 115.109 488.233L117.189 481.065L118.517 481.065L120.661 488.281C120.735 488.516 120.799 488.756 120.853 489.001C120.917 489.236 120.975 489.465 121.029 489.689C121.082 489.902 121.125 490.116 121.157 490.329C121.199 490.532 121.237 490.724 121.269 490.905C121.301 490.649 121.338 490.382 121.381 490.105C121.434 489.828 121.498 489.54 121.573 489.241C121.647 488.932 121.727 488.617 121.813 488.297L123.669 481.065L125.013 481.065Z" fill="#1A1A1A"/>
</g>
<g id="LabelFrame_7">
<path id="SE" d="M485.17 489.465C485.17 490.148 485.005 490.724 484.674 491.193C484.344 491.662 483.869 492.025 483.25 492.281C482.642 492.526 481.933 492.649 481.122 492.649C480.696 492.649 480.285 492.628 479.89 492.585C479.506 492.542 479.154 492.484 478.834 492.409C478.525 492.324 478.248 492.228 478.002 492.121L478.002 490.873C478.386 491.044 478.861 491.198 479.426 491.337C479.992 491.465 480.578 491.529 481.186 491.529C481.762 491.529 482.248 491.454 482.642 491.305C483.048 491.145 483.357 490.921 483.57 490.633C483.784 490.334 483.89 489.977 483.89 489.561C483.89 489.166 483.8 488.836 483.618 488.569C483.448 488.302 483.16 488.062 482.754 487.849C482.349 487.625 481.805 487.396 481.122 487.161C480.632 486.98 480.2 486.788 479.826 486.585C479.464 486.382 479.154 486.153 478.898 485.897C478.653 485.641 478.466 485.342 478.338 485.001C478.21 484.66 478.146 484.265 478.146 483.817C478.146 483.198 478.301 482.676 478.61 482.249C478.92 481.812 479.346 481.481 479.89 481.257C480.445 481.022 481.074 480.905 481.778 480.905C482.397 480.905 482.962 480.964 483.474 481.081C483.986 481.188 484.461 481.342 484.898 481.545L484.482 482.633C484.077 482.462 483.64 482.324 483.17 482.217C482.712 482.1 482.237 482.041 481.746 482.041C481.256 482.041 480.84 482.116 480.498 482.265C480.157 482.404 479.896 482.606 479.714 482.873C479.533 483.14 479.442 483.454 479.442 483.817C479.442 484.233 479.528 484.574 479.698 484.841C479.88 485.108 480.157 485.342 480.53 485.545C480.914 485.748 481.405 485.961 482.002 486.185C482.685 486.43 483.261 486.692 483.73 486.969C484.2 487.246 484.557 487.582 484.802 487.977C485.048 488.361 485.17 488.857 485.17 489.465ZM493.856 492.489L487.504 492.489L487.504 481.065L493.856 481.065L493.856 482.201L488.784 482.201L488.784 485.945L493.552 485.945L493.552 487.065L488.784 487.065L488.784 491.353L493.856 491.353L493.856 492.489Z" fill="#1A1A1A"/>
</g>
<g id="LabelFrame_8">
<path id="NW" d="M111.09 120.015L109.618 120.015L103.346 110.383L103.282 110.383C103.293 110.575 103.303 110.788 103.314 111.023C103.335 111.247 103.351 111.492 103.362 111.759C103.373 112.015 103.378 112.282 103.378 112.559C103.389 112.836 103.394 113.114 103.394 113.391L103.394 120.015L102.21 120.015L102.21 108.591L103.666 108.591L109.922 118.191L109.97 118.191C109.97 118.052 109.965 117.871 109.954 117.647C109.943 117.423 109.933 117.178 109.922 116.911C109.911 116.634 109.901 116.356 109.89 116.079C109.879 115.791 109.874 115.524 109.874 115.279L109.874 108.591L111.09 108.591L111.09 120.015ZM127.138 108.591L124.082 120.015L122.786 120.015L120.514 112.255C120.45 112.042 120.386 111.828 120.322 111.615C120.268 111.391 120.215 111.183 120.162 110.991C120.119 110.788 120.076 110.612 120.034 110.463C120.002 110.314 119.975 110.196 119.954 110.111C119.943 110.196 119.922 110.314 119.89 110.463C119.868 110.602 119.831 110.772 119.778 110.975C119.735 111.167 119.687 111.37 119.634 111.583C119.58 111.796 119.522 112.015 119.458 112.239L117.234 120.015L115.938 120.015L112.898 108.591L114.242 108.591L116.114 115.823C116.167 116.058 116.22 116.292 116.274 116.527C116.327 116.751 116.375 116.975 116.418 117.199C116.471 117.412 116.514 117.62 116.546 117.823C116.578 118.026 116.61 118.223 116.642 118.415C116.674 118.212 116.706 118.01 116.738 117.807C116.78 117.594 116.828 117.375 116.882 117.151C116.935 116.916 116.988 116.682 117.042 116.447C117.106 116.212 117.17 115.983 117.234 115.759L119.314 108.591L120.642 108.591L122.786 115.807C122.86 116.042 122.924 116.282 122.978 116.527C123.042 116.762 123.1 116.991 123.154 117.215C123.207 117.428 123.25 117.642 123.282 117.855C123.324 118.058 123.362 118.25 123.394 118.431C123.426 118.175 123.463 117.908 123.506 117.631C123.559 117.354 123.623 117.066 123.698 116.767C123.772 116.458 123.852 116.143 123.938 115.823L125.794 108.591L127.138 108.591Z" fill="#1A1A1A"/>
</g>
</g>
</g>
</g>
</g>
<g id="ROT">
<path id="frame_3" fill-rule="evenodd" clip-rule="evenodd" d="M300 478.125C398.376 478.125 478.125 398.376 478.125 300C478.125 201.624 398.376 121.875 300 121.875C201.624 121.875 121.875 201.624 121.875 300C121.875 398.376 201.624 478.125 300 478.125ZM300 506.25C413.909 506.25 506.25 413.909 506.25 300C506.25 186.091 413.909 93.75 300 93.75C186.091 93.75 93.75 186.091 93.75 300C93.75 413.909 186.091 506.25 300 506.25Z" fill="#F7F7F7"/>
<circle id="border-inside" cx="300" cy="300" r="178.625" stroke="black" stroke-opacity="0.05"/>
<circle id="border-outisde" cx="300" cy="300" r="205.75" stroke="#D9D9D9"/>
<g id="rot-dots">
<g id="Frame 11">
<circle id="Ellipse 14" cx="300" cy="107.812" r="9.375" fill="#333333"/>
</g>
<g id="Frame 12">
<circle id="Ellipse 14_2" cx="482.781" cy="240.611" r="9.375" transform="rotate(72 482.781 240.611)" fill="#333333"/>
</g>
<g id="Frame 14">
<ellipse id="Ellipse 14_3" cx="117.219" cy="240.611" rx="9.375" ry="9.375" transform="rotate(-72 117.219 240.611)" fill="#333333"/>
</g>
<g id="Frame 13">
<ellipse id="Ellipse 14_4" cx="187.035" cy="455.483" rx="9.375" ry="9.375" transform="rotate(-144 187.035 455.483)" fill="#333333"/>
</g>
<g id="Frame 15">
<ellipse id="Ellipse 14_5" cx="412.965" cy="455.483" rx="9.375" ry="9.375" transform="rotate(144 412.965 455.483)" fill="#333333"/>
</g>
</g>
</g>
</g>
</svg>

