<svg width="64" height="600" viewBox="0 0 64 600" fill="none" xmlns="http://www.w3.org/2000/svg">
<path d="M7.92188 267.48C7.92188 241.335 24.9508 215.625 31.6875 215.625C38.4242 215.625 55.4531 240.463 55.4531 267.48L55.4531 377.343C55.4531 381.227 52.7931 384.375 49.5117 384.375L13.8633 384.375C10.5819 384.375 7.92188 381.227 7.92188 377.343L7.92188 267.48Z" fill="white" stroke="#707070"/>
<path fill-rule="evenodd" clip-rule="evenodd" d="M32.1875 299.5L61.3945 299.5L61.3945 300.5L1.98047 300.5L1.98047 299.5L31.1875 299.5L31.1875 208.594L32.1875 208.594L32.1875 299.5Z" fill="#707070"/>
<mask id="path-3-outside-1_28_10192" maskUnits="userSpaceOnUse" x="12.4927" y="89.7504" width="39" height="221" fill="black">
<rect fill="white" x="12.4927" y="89.7504" width="39" height="221"/>
<path fill-rule="evenodd" clip-rule="evenodd" d="M22.6688 119.365L31.6873 93.7504L49.7245 144.98C50.3927 146.878 48.8192 148.802 47.1945 148.073L32.6776 141.563L32.6776 290.698C36.5853 291.275 39.6092 295.22 39.6092 300C39.6092 305.178 36.0624 309.375 31.6873 309.375C27.3122 309.375 23.7654 305.178 23.7654 300C23.7654 295.219 26.7893 291.274 30.6971 290.698L30.6971 141.563L16.1802 148.073C14.5555 148.802 12.982 146.878 13.6503 144.98L22.6688 119.365Z"/>
</mask>
<path fill-rule="evenodd" clip-rule="evenodd" d="M22.6688 119.365L31.6873 93.7504L49.7245 144.98C50.3927 146.878 48.8192 148.802 47.1945 148.073L32.6776 141.563L32.6776 290.698C36.5853 291.275 39.6092 295.22 39.6092 300C39.6092 305.178 36.0624 309.375 31.6873 309.375C27.3122 309.375 23.7654 305.178 23.7654 300C23.7654 295.219 26.7893 291.274 30.6971 290.698L30.6971 141.563L16.1802 148.073C14.5555 148.802 12.982 146.878 13.6503 144.98L22.6688 119.365Z" fill="#333333"/>
<path d="M31.6873 93.7504L32.6306 93.4183L31.6873 90.7393L30.7441 93.4183L31.6873 93.7504ZM22.6688 119.365L23.612 119.697L22.6688 119.365ZM49.7245 144.98L48.7812 145.312L48.7812 145.312L49.7245 144.98ZM47.1945 148.073L46.7854 148.986L47.1945 148.073ZM32.6776 141.563L33.0867 140.65L31.6776 140.018L31.6776 141.563L32.6776 141.563ZM32.6776 290.698L31.6776 290.698L31.6776 291.561L32.5316 291.687L32.6776 290.698ZM30.6971 290.698L30.8431 291.687L31.6971 291.561L31.6971 290.698L30.6971 290.698ZM30.6971 141.563L31.6971 141.563L31.6971 140.018L30.2879 140.65L30.6971 141.563ZM16.1802 148.073L16.5894 148.986L16.5894 148.986L16.1802 148.073ZM13.6503 144.98L14.5935 145.312L14.5935 145.312L13.6503 144.98ZM30.7441 93.4183L21.7255 119.033L23.612 119.697L32.6306 94.0825L30.7441 93.4183ZM50.6677 144.648L32.6306 93.4183L30.7441 94.0825L48.7812 145.312L50.6677 144.648ZM46.7854 148.986C48.0902 149.571 49.3542 149.048 50.0934 148.145C50.8219 147.254 51.1206 145.934 50.6677 144.648L48.7812 145.312C48.9966 145.924 48.8427 146.515 48.5453 146.878C48.2587 147.229 47.9236 147.304 47.6037 147.161L46.7854 148.986ZM32.2684 142.475L46.7854 148.986L47.6037 147.161L33.0867 140.65L32.2684 142.475ZM33.6776 290.698L33.6776 141.563L31.6776 141.563L31.6776 290.698L33.6776 290.698ZM40.6092 300C40.6092 294.847 37.3351 290.374 32.8235 289.709L32.5316 291.687C35.8355 292.175 38.6092 295.592 38.6092 300L40.6092 300ZM31.6873 310.375C36.7659 310.375 40.6092 305.566 40.6092 300L38.6092 300C38.6092 304.79 35.3589 308.375 31.6873 308.375L31.6873 310.375ZM22.7654 300C22.7654 305.566 26.6086 310.375 31.6873 310.375L31.6873 308.375C28.0157 308.375 24.7654 304.79 24.7654 300L22.7654 300ZM30.5511 289.709C26.0395 290.374 22.7654 294.847 22.7654 300L24.7654 300C24.7654 295.592 27.5391 292.175 30.8431 291.687L30.5511 289.709ZM29.6971 141.563L29.6971 290.698L31.6971 290.698L31.6971 141.563L29.6971 141.563ZM16.5894 148.986L31.1063 142.475L30.2879 140.65L15.771 147.161L16.5894 148.986ZM12.707 144.648C12.2541 145.934 12.5529 147.254 13.2813 148.145C14.0205 149.048 15.2846 149.571 16.5894 148.986L15.771 147.161C15.4511 147.304 15.1161 147.229 14.8294 146.878C14.532 146.515 14.3781 145.924 14.5935 145.312L12.707 144.648ZM21.7255 119.033L12.707 144.648L14.5935 145.312L23.612 119.697L21.7255 119.033Z" fill="#F7F7F7" mask="url(#path-3-outside-1_28_10192)"/>
</svg>

