<svg width="65" height="509" viewBox="0 0 65 509" fill="none" xmlns="http://www.w3.org/2000/svg">
<mask id="path-1-outside-1_28_10189" maskUnits="userSpaceOnUse" x="19.6558" y="0.323272" width="25" height="50" fill="black">
<rect fill="white" x="19.6558" y="0.323272" width="25" height="50"/>
<path d="M34.3747 25.0981L34.3747 1.32334L30.3629 1.32327L30.3629 25.098L34.3747 25.0981Z"/>
<path fill-rule="evenodd" clip-rule="evenodd" d="M42.6558 38.5511L32.3432 48.8636L22.0307 38.5511L24.8315 35.7503L32.3432 43.262L39.855 35.7503L42.6558 38.5511Z"/>
<path fill-rule="evenodd" clip-rule="evenodd" d="M42.2457 27.8989L31.9332 38.2114L21.6207 27.8989L24.4215 25.0981L31.9332 32.6098L39.4449 25.0981L42.2457 27.8989Z"/>
</mask>
<path d="M34.3747 25.0981L34.3747 1.32334L30.3629 1.32327L30.3629 25.098L34.3747 25.0981Z" fill="#0070D6"/>
<path fill-rule="evenodd" clip-rule="evenodd" d="M42.6558 38.5511L32.3432 48.8636L22.0307 38.5511L24.8315 35.7503L32.3432 43.262L39.855 35.7503L42.6558 38.5511Z" fill="#0070D6"/>
<path fill-rule="evenodd" clip-rule="evenodd" d="M42.2457 27.8989L31.9332 38.2114L21.6207 27.8989L24.4215 25.0981L31.9332 32.6098L39.4449 25.0981L42.2457 27.8989Z" fill="#0070D6"/>
<path d="M34.3747 25.0981L34.3747 26.0981L35.3747 26.0981L35.3747 25.0981L34.3747 25.0981ZM34.3747 1.32334L35.3747 1.32334L35.3747 0.323353L34.3747 0.323337L34.3747 1.32334ZM30.3629 1.32327L30.3629 0.323272L29.3629 0.323256L29.3629 1.32327L30.3629 1.32327ZM30.3629 25.098L29.3629 25.098L29.3629 26.098L30.3629 26.098L30.3629 25.098ZM42.6558 38.5511L43.3629 39.2582L44.07 38.5511L43.3629 37.844L42.6558 38.5511ZM32.3432 48.8636L31.6361 49.5707L32.3432 50.2779L33.0504 49.5707L32.3432 48.8636ZM22.0307 38.5511L21.3236 37.844L20.6165 38.5511L21.3236 39.2582L22.0307 38.5511ZM24.8315 35.7503L25.5387 35.0432L24.8315 34.3361L24.1244 35.0432L24.8315 35.7503ZM32.3432 43.262L31.6361 43.9691L32.3432 44.6762L33.0504 43.9691L32.3432 43.262ZM39.855 35.7503L40.5621 35.0432L39.855 34.3361L39.1478 35.0432L39.855 35.7503ZM42.2457 27.8989L42.9528 28.606L43.66 27.8989L42.9528 27.1918L42.2457 27.8989ZM31.9332 38.2114L31.2261 38.9185L31.9332 39.6256L32.6403 38.9185L31.9332 38.2114ZM21.6207 27.8989L20.9136 27.1918L20.2065 27.8989L20.9136 28.606L21.6207 27.8989ZM24.4215 25.0981L25.1286 24.3909L24.4215 23.6838L23.7144 24.3909L24.4215 25.0981ZM31.9332 32.6098L31.2261 33.3169L31.9332 34.024L32.6403 33.3169L31.9332 32.6098ZM39.4449 25.0981L40.152 24.3909L39.4449 23.6838L38.7378 24.3909L39.4449 25.0981ZM35.3747 25.0981L35.3747 1.32334L33.3747 1.32334L33.3747 25.0981L35.3747 25.0981ZM34.3747 0.323337L30.3629 0.323272L30.3629 2.32327L34.3747 2.32334L34.3747 0.323337ZM29.3629 1.32327L29.3629 25.098L31.3629 25.098L31.3629 1.32327L29.3629 1.32327ZM30.3629 26.098L34.3747 26.0981L34.3747 24.0981L30.3629 24.098L30.3629 26.098ZM24.1244 35.0432L21.3236 37.844L22.7378 39.2582L25.5387 36.4574L24.1244 35.0432ZM33.0504 42.5549L25.5387 35.0432L24.1244 36.4574L31.6361 43.9691L33.0504 42.5549ZM39.1478 35.0432L31.6361 42.5549L33.0504 43.9691L40.5621 36.4574L39.1478 35.0432ZM43.3629 37.844L40.5621 35.0432L39.1478 36.4574L41.9487 39.2582L43.3629 37.844ZM33.0504 49.5707L43.3629 39.2582L41.9487 37.844L31.6361 48.1565L33.0504 49.5707ZM21.3236 39.2582L31.6361 49.5707L33.0504 48.1565L22.7378 37.844L21.3236 39.2582ZM23.7144 24.3909L20.9136 27.1918L22.3278 28.606L25.1286 25.8052L23.7144 24.3909ZM32.6403 31.9027L25.1286 24.3909L23.7144 25.8052L31.2261 33.3169L32.6403 31.9027ZM38.7378 24.3909L31.2261 31.9027L32.6403 33.3169L40.152 25.8052L38.7378 24.3909ZM42.9528 27.1918L40.152 24.3909L38.7378 25.8052L41.5386 28.606L42.9528 27.1918ZM32.6403 38.9185L42.9528 28.606L41.5386 27.1918L31.2261 37.5043L32.6403 38.9185ZM20.9136 28.606L31.2261 38.9185L32.6403 37.5043L22.3278 27.1918L20.9136 28.606Z" fill="#F7F7F7" mask="url(#path-1-outside-1_28_10189)"/>
</svg>

