<svg width="64" height="508" viewBox="0 0 64 508" fill="none" xmlns="http://www.w3.org/2000/svg">
<path d="M8.29053 226.993C8.29053 204.9 25.3194 183.175 32.0562 183.175C38.7929 183.175 55.8218 204.164 55.8218 226.993L55.8218 319.828C55.8218 323.109 53.1617 325.769 49.8804 325.769L14.2319 325.769C10.9506 325.769 8.29054 323.109 8.29054 319.828L8.29053 226.993Z" fill="white" stroke="#707070"/>
<path fill-rule="evenodd" clip-rule="evenodd" d="M32.5562 253.972L61.7632 253.972L61.7632 254.972L2.34913 254.972L2.34913 253.972L31.5562 253.972L31.5561 177.234L32.5561 177.234L32.5562 253.972Z" fill="#707070"/>
<mask id="path-3-outside-1_28_10192" maskUnits="userSpaceOnUse" x="11.8613" y="77.1915" width="40" height="187" fill="black">
<rect fill="white" x="11.8613" y="77.1915" width="40" height="187"/>
<path fill-rule="evenodd" clip-rule="evenodd" d="M23.0374 101.836L32.056 80.1915L50.0931 123.481C50.7614 125.084 49.1879 126.71 47.5632 126.094L33.0462 120.593L33.0462 246.612C36.954 247.1 39.9778 250.433 39.9778 254.473C39.9778 258.848 36.4311 262.395 32.0559 262.395C27.6808 262.395 24.1341 258.848 24.1341 254.473C24.1341 250.433 27.158 247.099 31.0657 246.612L31.0657 120.593L16.5488 126.094C14.9241 126.71 13.3507 125.084 14.0189 123.481L23.0374 101.836Z"/>
</mask>
<path fill-rule="evenodd" clip-rule="evenodd" d="M23.0374 101.836L32.056 80.1915L50.0931 123.481C50.7614 125.084 49.1879 126.71 47.5632 126.094L33.0462 120.593L33.0462 246.612C36.954 247.1 39.9778 250.433 39.9778 254.473C39.9778 258.848 36.4311 262.395 32.0559 262.395C27.6808 262.395 24.1341 258.848 24.1341 254.473C24.1341 250.433 27.158 247.099 31.0657 246.612L31.0657 120.593L16.5488 126.094C14.9241 126.71 13.3507 125.084 14.0189 123.481L23.0374 101.836Z" fill="#333333"/>
<path d="M32.056 80.1915L32.9791 79.8069L32.056 77.5915L31.1329 79.8069L32.056 80.1915ZM23.0374 101.836L23.9605 102.221L23.9605 102.221L23.0374 101.836ZM50.0931 123.481L49.17 123.865L49.17 123.865L50.0931 123.481ZM47.5632 126.094L47.2088 127.029L47.2088 127.029L47.5632 126.094ZM33.0462 120.593L33.4006 119.658L32.0462 119.145L32.0462 120.593L33.0462 120.593ZM33.0462 246.612L32.0462 246.612L32.0462 247.495L32.9225 247.605L33.0462 246.612ZM31.0657 246.612L31.1895 247.605L32.0657 247.495L32.0657 246.612L31.0657 246.612ZM31.0657 120.593L32.0657 120.593L32.0657 119.145L30.7114 119.658L31.0657 120.593ZM16.5488 126.094L16.9032 127.029L16.9032 127.029L16.5488 126.094ZM14.0189 123.481L14.942 123.865L14.942 123.865L14.0189 123.481ZM31.1329 79.8069L22.1144 101.451L23.9605 102.221L32.9791 80.5761L31.1329 79.8069ZM51.0162 123.096L32.9791 79.8069L31.1329 80.5761L49.17 123.865L51.0162 123.096ZM47.2088 127.029C49.6539 127.956 52.0219 125.51 51.0162 123.096L49.17 123.865C49.5009 124.659 48.7219 125.464 47.9176 125.159L47.2088 127.029ZM32.6918 121.528L47.2088 127.029L47.9176 125.159L33.4006 119.658L32.6918 121.528ZM34.0462 246.612L34.0462 120.593L32.0462 120.593L32.0462 246.612L34.0462 246.612ZM40.9778 254.473C40.9778 249.922 37.572 246.169 33.1699 245.62L32.9225 247.605C36.3359 248.03 38.9778 250.944 38.9778 254.473L40.9778 254.473ZM32.0559 263.395C36.9834 263.395 40.9778 259.4 40.9778 254.473L38.9778 254.473C38.9778 258.296 35.8788 261.395 32.0559 261.395L32.0559 263.395ZM23.1341 254.473C23.1341 259.4 27.1285 263.395 32.0559 263.395L32.0559 261.395C28.2331 261.395 25.1341 258.296 25.1341 254.473L23.1341 254.473ZM30.942 245.62C26.5399 246.169 23.1341 249.922 23.1341 254.473L25.1341 254.473C25.1341 250.944 27.776 248.03 31.1895 247.605L30.942 245.62ZM30.0657 120.593L30.0657 246.612L32.0657 246.612L32.0657 120.593L30.0657 120.593ZM16.9032 127.029L31.4201 121.528L30.7114 119.658L16.1945 125.159L16.9032 127.029ZM13.0958 123.096C12.0902 125.509 14.4581 127.956 16.9032 127.029L16.1945 125.159C15.3901 125.464 14.6112 124.659 14.942 123.865L13.0958 123.096ZM22.1144 101.451L13.0958 123.096L14.942 123.865L23.9605 102.221L22.1144 101.451Z" fill="#F7F7F7" mask="url(#path-3-outside-1_28_10192)"/>
</svg>

