<svg width="600" height="600" viewBox="0 0 600 600" fill="none" xmlns="http://www.w3.org/2000/svg">
<g clip-path="url(#clip0_60_710)">
<path d="M75 0H0V50H75V0Z" stroke="#303034" stroke-width="0.5"/>
<path d="M150 0H75V50H150V0Z" stroke="#303034" stroke-width="0.5"/>
<path d="M225 0H150V50H225V0Z" stroke="#303034" stroke-width="0.5"/>
<path d="M300 0H225V50H300V0Z" stroke="#303034" stroke-width="0.5"/>
<path d="M375 0H300V50H375V0Z" stroke="#303034" stroke-width="0.5"/>
<path d="M450 0H375V50H450V0Z" stroke="#303034" stroke-width="0.5"/>
<path d="M525 0H450V50H525V0Z" stroke="#303034" stroke-width="0.5"/>
<path d="M600 0H525V50H600V0Z" stroke="#303034" stroke-width="0.5"/>
<path d="M675 0H600V50H675V0Z" stroke="#303034" stroke-width="0.5"/>
<path d="M75 50H0V100H75V50Z" stroke="#303034" stroke-width="0.5"/>
<path d="M150 50H75V100H150V50Z" stroke="#303034" stroke-width="0.5"/>
<path d="M225 50H150V100H225V50Z" stroke="#303034" stroke-width="0.5"/>
<path d="M300 50H225V100H300V50Z" stroke="#303034" stroke-width="0.5"/>
<path d="M375 50H300V100H375V50Z" stroke="#303034" stroke-width="0.5"/>
<path d="M450 50H375V100H450V50Z" stroke="#303034" stroke-width="0.5"/>
<path d="M525 50H450V100H525V50Z" stroke="#303034" stroke-width="0.5"/>
<path d="M600 50H525V100H600V50Z" stroke="#303034" stroke-width="0.5"/>
<path d="M675 50H600V100H675V50Z" stroke="#303034" stroke-width="0.5"/>
<path d="M75 100H0V150H75V100Z" stroke="#303034" stroke-width="0.5"/>
<path d="M150 100H75V150H150V100Z" stroke="#303034" stroke-width="0.5"/>
<path d="M225 100H150V150H225V100Z" stroke="#303034" stroke-width="0.5"/>
<path d="M300 100H225V150H300V100Z" stroke="#303034" stroke-width="0.5"/>
<path d="M375 100H300V150H375V100Z" stroke="#303034" stroke-width="0.5"/>
<path d="M450 100H375V150H450V100Z" stroke="#303034" stroke-width="0.5"/>
<path d="M525 100H450V150H525V100Z" stroke="#303034" stroke-width="0.5"/>
<path d="M600 100H525V150H600V100Z" stroke="#303034" stroke-width="0.5"/>
<path d="M675 100H600V150H675V100Z" stroke="#303034" stroke-width="0.5"/>
<path d="M75 150H0V200H75V150Z" stroke="#303034" stroke-width="0.5"/>
<path d="M150 150H75V200H150V150Z" stroke="#303034" stroke-width="0.5"/>
<path d="M225 150H150V200H225V150Z" stroke="#303034" stroke-width="0.5"/>
<path d="M300 150H225V200H300V150Z" stroke="#303034" stroke-width="0.5"/>
<path d="M375 150H300V200H375V150Z" stroke="#303034" stroke-width="0.5"/>
<path d="M450 150H375V200H450V150Z" stroke="#303034" stroke-width="0.5"/>
<path d="M525 150H450V200H525V150Z" stroke="#303034" stroke-width="0.5"/>
<path d="M600 150H525V200H600V150Z" stroke="#303034" stroke-width="0.5"/>
<path d="M675 150H600V200H675V150Z" stroke="#303034" stroke-width="0.5"/>
<path d="M75 200H0V250H75V200Z" stroke="#303034" stroke-width="0.5"/>
<path d="M150 200H75V250H150V200Z" stroke="#303034" stroke-width="0.5"/>
<path d="M225 200H150V250H225V200Z" stroke="#303034" stroke-width="0.5"/>
<path d="M300 200H225V250H300V200Z" stroke="#303034" stroke-width="0.5"/>
<path d="M375 200H300V250H375V200Z" stroke="#303034" stroke-width="0.5"/>
<path d="M450 200H375V250H450V200Z" stroke="#303034" stroke-width="0.5"/>
<path d="M525 200H450V250H525V200Z" stroke="#303034" stroke-width="0.5"/>
<path d="M600 200H525V250H600V200Z" stroke="#303034" stroke-width="0.5"/>
<path d="M675 200H600V250H675V200Z" stroke="#303034" stroke-width="0.5"/>
<path d="M75 250H0V300H75V250Z" stroke="#303034" stroke-width="0.5"/>
<path d="M150 250H75V300H150V250Z" stroke="#303034" stroke-width="0.5"/>
<path d="M225 250H150V300H225V250Z" stroke="#303034" stroke-width="0.5"/>
<path d="M300 250H225V300H300V250Z" stroke="#303034" stroke-width="0.5"/>
<path d="M375 250H300V300H375V250Z" stroke="#303034" stroke-width="0.5"/>
<path d="M450 250H375V300H450V250Z" stroke="#303034" stroke-width="0.5"/>
<path d="M525 250H450V300H525V250Z" stroke="#303034" stroke-width="0.5"/>
<path d="M600 250H525V300H600V250Z" stroke="#303034" stroke-width="0.5"/>
<path d="M675 250H600V300H675V250Z" stroke="#303034" stroke-width="0.5"/>
<path d="M75 300H0V350H75V300Z" stroke="#303034" stroke-width="0.5"/>
<path d="M150 300H75V350H150V300Z" stroke="#303034" stroke-width="0.5"/>
<path d="M225 300H150V350H225V300Z" stroke="#303034" stroke-width="0.5"/>
<path d="M300 300H225V350H300V300Z" stroke="#303034" stroke-width="0.5"/>
<path d="M375 300H300V350H375V300Z" stroke="#303034" stroke-width="0.5"/>
<path d="M450 300H375V350H450V300Z" stroke="#303034" stroke-width="0.5"/>
<path d="M525 300H450V350H525V300Z" stroke="#303034" stroke-width="0.5"/>
<path d="M600 300H525V350H600V300Z" stroke="#303034" stroke-width="0.5"/>
<path d="M675 300H600V350H675V300Z" stroke="#303034" stroke-width="0.5"/>
<path d="M75 350H0V400H75V350Z" stroke="#303034" stroke-width="0.5"/>
<path d="M150 350H75V400H150V350Z" stroke="#303034" stroke-width="0.5"/>
<path d="M225 350H150V400H225V350Z" stroke="#303034" stroke-width="0.5"/>
<path d="M300 350H225V400H300V350Z" stroke="#303034" stroke-width="0.5"/>
<path d="M375 350H300V400H375V350Z" stroke="#303034" stroke-width="0.5"/>
<path d="M450 350H375V400H450V350Z" stroke="#303034" stroke-width="0.5"/>
<path d="M525 350H450V400H525V350Z" stroke="#303034" stroke-width="0.5"/>
<path d="M600 350H525V400H600V350Z" stroke="#303034" stroke-width="0.5"/>
<path d="M675 350H600V400H675V350Z" stroke="#303034" stroke-width="0.5"/>
<path d="M75 400H0V450H75V400Z" stroke="#303034" stroke-width="0.5"/>
<path d="M150 400H75V450H150V400Z" stroke="#303034" stroke-width="0.5"/>
<path d="M225 400H150V450H225V400Z" stroke="#303034" stroke-width="0.5"/>
<path d="M300 400H225V450H300V400Z" stroke="#303034" stroke-width="0.5"/>
<path d="M375 400H300V450H375V400Z" stroke="#303034" stroke-width="0.5"/>
<path d="M450 400H375V450H450V400Z" stroke="#303034" stroke-width="0.5"/>
<path d="M525 400H450V450H525V400Z" stroke="#303034" stroke-width="0.5"/>
<path d="M600 400H525V450H600V400Z" stroke="#303034" stroke-width="0.5"/>
<path d="M675 400H600V450H675V400Z" stroke="#303034" stroke-width="0.5"/>
<path d="M75 450H0V500H75V450Z" stroke="#303034" stroke-width="0.5"/>
<path d="M150 450H75V500H150V450Z" stroke="#303034" stroke-width="0.5"/>
<path d="M225 450H150V500H225V450Z" stroke="#303034" stroke-width="0.5"/>
<path d="M300 450H225V500H300V450Z" stroke="#303034" stroke-width="0.5"/>
<path d="M375 450H300V500H375V450Z" stroke="#303034" stroke-width="0.5"/>
<path d="M450 450H375V500H450V450Z" stroke="#303034" stroke-width="0.5"/>
<path d="M525 450H450V500H525V450Z" stroke="#303034" stroke-width="0.5"/>
<path d="M600 450H525V500H600V450Z" stroke="#303034" stroke-width="0.5"/>
<path d="M675 450H600V500H675V450Z" stroke="#303034" stroke-width="0.5"/>
<path d="M75 500H0V550H75V500Z" stroke="#303034" stroke-width="0.5"/>
<path d="M150 500H75V550H150V500Z" stroke="#303034" stroke-width="0.5"/>
<path d="M225 500H150V550H225V500Z" stroke="#303034" stroke-width="0.5"/>
<path d="M300 500H225V550H300V500Z" stroke="#303034" stroke-width="0.5"/>
<path d="M375 500H300V550H375V500Z" stroke="#303034" stroke-width="0.5"/>
<path d="M450 500H375V550H450V500Z" stroke="#303034" stroke-width="0.5"/>
<path d="M525 500H450V550H525V500Z" stroke="#303034" stroke-width="0.5"/>
<path d="M600 500H525V550H600V500Z" stroke="#303034" stroke-width="0.5"/>
<path d="M675 500H600V550H675V500Z" stroke="#303034" stroke-width="0.5"/>
<path d="M75 550H0V600H75V550Z" stroke="#303034" stroke-width="0.5"/>
<path d="M150 550H75V600H150V550Z" stroke="#303034" stroke-width="0.5"/>
<path d="M225 550H150V600H225V550Z" stroke="#303034" stroke-width="0.5"/>
<path d="M300 550H225V600H300V550Z" stroke="#303034" stroke-width="0.5"/>
<path d="M375 550H300V600H375V550Z" stroke="#303034" stroke-width="0.5"/>
<path d="M450 550H375V600H450V550Z" stroke="#303034" stroke-width="0.5"/>
<path d="M525 550H450V600H525V550Z" stroke="#303034" stroke-width="0.5"/>
<path d="M600 550H525V600H600V550Z" stroke="#303034" stroke-width="0.5"/>
<path d="M675 550H600V600H675V550Z" stroke="#303034" stroke-width="0.5"/>
<path d="M75 600H0V650H75V600Z" stroke="#303034" stroke-width="0.5"/>
<path d="M150 600H75V650H150V600Z" stroke="#303034" stroke-width="0.5"/>
<path d="M225 600H150V650H225V600Z" stroke="#303034" stroke-width="0.5"/>
<path d="M300 600H225V650H300V600Z" stroke="#303034" stroke-width="0.5"/>
<path d="M375 600H300V650H375V600Z" stroke="#303034" stroke-width="0.5"/>
<path d="M450 600H375V650H450V600Z" stroke="#303034" stroke-width="0.5"/>
<path d="M525 600H450V650H525V600Z" stroke="#303034" stroke-width="0.5"/>
<path d="M600 600H525V650H600V600Z" stroke="#303034" stroke-width="0.5"/>
<path d="M675 600H600V650H675V600Z" stroke="#303034" stroke-width="0.5"/>
</g>
<defs>
<clipPath id="clip0_60_710">
<rect width="600" height="600" fill="white"/>
</clipPath>
</defs>
</svg>

