<svg width="64" height="509" viewBox="0 0 64 509" fill="none" xmlns="http://www.w3.org/2000/svg">
<mask id="path-1-outside-1_28_10190" maskUnits="userSpaceOnUse" x="23.7095" y="0.379294" width="23" height="52" fill="black">
<rect fill="white" x="23.7095" y="0.379294" width="23" height="52"/>
<path d="M33.8267 1.37929L29.8657 1.37929L29.8657 35.0473L25.9048 35.0473L31.8462 48.9105L37.7876 35.0473L33.8267 35.0473L33.8267 1.37929Z"/>
<path d="M45.7095 1.3793L45.7095 3.35976L33.8267 3.35976L33.8267 1.37929L45.7095 1.3793Z"/>
<path d="M45.7095 7.3207L45.7095 9.30117L33.8267 9.30117L33.8267 7.3207L45.7095 7.3207Z"/>
<path d="M39.7681 13.2621L39.7681 15.2426L33.8267 15.2426L33.8267 13.2621L39.7681 13.2621Z"/>
</mask>
<path d="M33.8267 1.37929L29.8657 1.37929L29.8657 35.0473L25.9048 35.0473L31.8462 48.9105L37.7876 35.0473L33.8267 35.0473L33.8267 1.37929Z" fill="#0070D6"/>
<path d="M45.7095 1.3793L45.7095 3.35976L33.8267 3.35976L33.8267 1.37929L45.7095 1.3793Z" fill="#0070D6"/>
<path d="M45.7095 7.3207L45.7095 9.30117L33.8267 9.30117L33.8267 7.3207L45.7095 7.3207Z" fill="#0070D6"/>
<path d="M39.7681 13.2621L39.7681 15.2426L33.8267 15.2426L33.8267 13.2621L39.7681 13.2621Z" fill="#0070D6"/>
<path d="M29.8657 1.37929L29.8657 0.379295L28.8657 0.379295L28.8657 1.37929L29.8657 1.37929ZM29.8657 35.0473L29.8657 36.0473L30.8657 36.0473L30.8657 35.0473L29.8657 35.0473ZM25.9048 35.0473L25.9048 34.0473L24.3882 34.0473L24.9856 35.4412L25.9048 35.0473ZM31.8462 48.9105L30.927 49.3045L31.8462 51.4491L32.7653 49.3045L31.8462 48.9105ZM37.7876 35.0473L38.7067 35.4412L39.3041 34.0473L37.7876 34.0473L37.7876 35.0473ZM33.8267 35.0473L32.8267 35.0473L32.8267 36.0473L33.8267 36.0473L33.8267 35.0473ZM45.7095 1.3793L46.7095 1.3793L46.7095 0.379295L45.7095 0.379295L45.7095 1.3793ZM45.7095 3.35976L45.7095 4.35976L46.7095 4.35976L46.7095 3.35976L45.7095 3.35976ZM33.8267 3.35976L32.8267 3.35976L32.8267 4.35976L33.8267 4.35976L33.8267 3.35976ZM45.7095 7.3207L46.7095 7.3207L46.7095 6.3207L45.7095 6.3207L45.7095 7.3207ZM45.7095 9.30117L45.7095 10.3012L46.7095 10.3012L46.7095 9.30117L45.7095 9.30117ZM33.8267 9.30117L32.8267 9.30117L32.8267 10.3012L33.8267 10.3012L33.8267 9.30117ZM33.8267 7.3207L33.8267 6.3207L32.8267 6.3207L32.8267 7.3207L33.8267 7.3207ZM39.7681 13.2621L40.7681 13.2621L40.7681 12.2621L39.7681 12.2621L39.7681 13.2621ZM39.7681 15.2426L39.7681 16.2426L40.7681 16.2426L40.7681 15.2426L39.7681 15.2426ZM33.8267 15.2426L32.8267 15.2426L32.8267 16.2426L33.8267 16.2426L33.8267 15.2426ZM33.8267 13.2621L33.8267 12.2621L32.8267 12.2621L32.8267 13.2621L33.8267 13.2621ZM33.8267 0.379295L29.8657 0.379295L29.8657 2.37929L33.8267 2.37929L33.8267 0.379295ZM28.8657 1.37929L28.8657 35.0473L30.8657 35.0473L30.8657 1.37929L28.8657 1.37929ZM29.8657 34.0473L25.9048 34.0473L25.9048 36.0473L29.8657 36.0473L29.8657 34.0473ZM24.9856 35.4412L30.927 49.3045L32.7653 48.5166L26.8239 34.6533L24.9856 35.4412ZM32.7653 49.3045L38.7067 35.4412L36.8685 34.6533L30.927 48.5166L32.7653 49.3045ZM37.7876 34.0473L33.8267 34.0473L33.8267 36.0473L37.7876 36.0473L37.7876 34.0473ZM34.8267 35.0473L34.8267 1.37929L32.8267 1.37929L32.8267 35.0473L34.8267 35.0473ZM44.7095 1.3793L44.7095 3.35976L46.7095 3.35976L46.7095 1.3793L44.7095 1.3793ZM45.7095 2.35976L33.8267 2.35976L33.8267 4.35976L45.7095 4.35976L45.7095 2.35976ZM34.8267 3.35976L34.8267 1.37929L32.8267 1.37929L32.8267 3.35976L34.8267 3.35976ZM33.8267 2.37929L45.7095 2.3793L45.7095 0.379295L33.8267 0.379295L33.8267 2.37929ZM44.7095 7.3207L44.7095 9.30117L46.7095 9.30117L46.7095 7.3207L44.7095 7.3207ZM45.7095 8.30117L33.8267 8.30117L33.8267 10.3012L45.7095 10.3012L45.7095 8.30117ZM34.8267 9.30117L34.8267 7.3207L32.8267 7.3207L32.8267 9.30117L34.8267 9.30117ZM33.8267 8.3207L45.7095 8.3207L45.7095 6.3207L33.8267 6.3207L33.8267 8.3207ZM38.7681 13.2621L38.7681 15.2426L40.7681 15.2426L40.7681 13.2621L38.7681 13.2621ZM39.7681 14.2426L33.8267 14.2426L33.8267 16.2426L39.7681 16.2426L39.7681 14.2426ZM34.8267 15.2426L34.8267 13.2621L32.8267 13.2621L32.8267 15.2426L34.8267 15.2426ZM33.8267 14.2621L39.7681 14.2621L39.7681 12.2621L33.8267 12.2621L33.8267 14.2621Z" fill="#F7F7F7" mask="url(#path-1-outside-1_28_10190)"/>
</svg>

