<svg width="507" height="507" viewBox="0 0 507 507" fill="none" xmlns="http://www.w3.org/2000/svg">
  <g id="Compass">
    <g id="Compass watchface">
      <g id="Watchface">
        <g id="frame">
          <path id="frame_2" d="M253.5 452.047C363.154 452.047 452.047 363.154 452.047 253.5C452.047 143.846 363.154 54.9531 253.5 54.9531C143.846 54.9531 54.9531 143.846 54.9531 253.5C54.9531 363.154 143.846 452.047 253.5 452.047ZM427.281 253.5C427.281 349.477 349.477 427.281 253.5 427.281C157.523 427.281 79.7188 349.477 79.7188 253.5C79.7188 157.523 157.523 79.7188 253.5 79.7188C349.477 79.7188 427.281 157.523 427.281 253.5Z" fill="white" stroke="#D9D9D9"/>
          </g>
        <path id="center-cross" d="M253.5 79.2188V427.781M427.781 253.5H79.2188" stroke="black" stroke-opacity="0.05"/>
        <g id="Tickmarks - Compass">
          <path id="tick-marks" d="M259.726 75.3623L260.003 67.4452M262.834 75.4984L263.248 67.5874M265.939 75.6903L266.491 67.7878M269.04 75.9338L269.73 68.0421M272.136 76.2309L272.965 68.3524M275.227 76.5816L276.193 68.7187M278.312 76.9881L279.414 69.1433M281.388 77.4473L282.627 69.6229M284.456 77.9622L285.832 70.1607M287.515 78.5287L289.026 70.7523M290.563 79.1481L292.21 71.3994M293.6 79.8215L295.382 72.1027M296.625 80.5481L298.542 72.8615M299.637 81.3277L301.687 73.6758M302.635 82.1582L304.819 74.5432M305.618 83.0402L307.934 75.4645M308.585 83.9754L311.033 76.4412M311.535 84.9617L314.115 77.4714M314.468 86.0014L317.177 78.5573M317.382 87.0912L320.221 79.6955M320.276 88.2329L323.244 80.8878M323.15 89.4216L326.246 82.1295M326.003 90.6623L329.225 83.4253M328.833 91.9529L332.181 84.7732M331.641 93.2909L335.114 86.1708M334.425 94.6777L338.021 87.6193M337.184 96.1147L340.903 89.1201M339.918 97.5999L343.759 90.6712M342.626 99.13L346.587 92.2695M345.306 100.708L349.386 93.9175M347.959 102.332L352.157 95.6137M350.582 104.004L354.897 97.3603M353.177 105.722L357.606 99.154M355.74 107.483L360.284 100.994M358.273 109.291L362.93 102.882M360.774 111.141L365.542 104.815M363.242 113.035L368.119 106.793M365.677 114.971L370.662 108.815M368.077 116.95L373.169 110.881M370.443 118.972L375.64 112.993M372.772 121.033L378.073 115.146M375.066 123.134L380.469 117.34M377.322 125.274L382.825 119.576M379.541 127.454L385.143 121.853M381.721 129.674L387.42 124.171M383.863 131.932L389.656 126.529M385.964 134.225L391.851 128.924M388.026 136.556L394.004 131.359M390.046 138.921L396.114 133.829M392.025 141.321L398.181 136.336M393.961 143.754L400.204 138.877M395.855 146.223L402.182 141.455M397.705 148.722L404.114 144.065M399.512 151.255L406.001 146.711M401.274 153.819L407.841 149.389M402.991 156.412L409.634 152.098M404.662 159.036L411.38 154.838M406.288 161.69L413.078 157.61M407.867 164.369L414.727 160.408M409.399 167.077L416.327 163.237M410.883 169.813L417.878 166.093M412.32 172.572L419.378 168.975M413.708 175.355L420.828 171.882M415.047 178.163L422.227 174.815M416.337 180.994L423.574 177.772M417.578 183.846L424.87 180.751M418.769 186.72L426.114 183.752M419.909 189.615L427.304 186.776M420.998 192.529L428.442 189.819M422.037 195.461L429.527 192.882M423.024 198.412L430.558 195.964M423.959 201.378L431.534 199.062M424.842 204.361L432.457 202.177M425.674 207.36L433.326 205.309M426.453 210.37L434.14 208.454M427.179 213.394L434.898 211.612M427.853 216.431L435.601 214.784M428.473 219.48L436.249 217.968M429.04 222.539L436.841 221.164M429.553 225.606L437.378 224.366M430.013 228.683L437.858 227.581M430.419 231.767L438.282 230.802M430.771 234.859L438.65 234.031M431.07 237.954L438.961 237.264M431.313 241.057L439.216 240.504M431.503 244.163L439.414 243.749M431.638 247.269L439.556 246.993M431.72 250.38L439.641 250.242M431.747 253.49H439.669M431.72 256.601L439.64 256.74M431.638 259.712L439.556 259.989M431.503 262.82L439.414 263.234M431.313 265.924L439.216 266.476M431.069 269.025L438.961 269.715M430.771 272.123L438.65 272.951M430.419 275.214L438.282 276.18M430.013 278.298L437.858 279.401M429.554 281.376L437.378 282.615M429.04 284.444L436.842 285.82M428.473 287.503L436.249 289.015M427.853 290.552L435.601 292.199M427.179 293.589L434.898 295.371M426.454 296.612L434.14 298.529M425.675 299.624L433.327 301.674M424.843 302.622L432.458 304.806M423.959 305.604L431.535 307.92M423.024 308.57L430.558 311.018M422.037 311.52L429.527 314.1M420.998 314.452L428.443 317.161M419.909 317.365L427.305 320.204M418.769 320.259L426.114 323.226M417.578 323.133L424.871 326.228M416.337 325.986L423.574 329.208M415.048 328.816L422.227 332.164M413.709 331.625L420.829 335.098M412.32 334.408L419.379 338.005M410.884 337.168L417.878 340.887M409.399 339.902L416.328 343.743M407.868 342.609L414.728 346.57M406.289 345.291L413.079 349.371M404.663 347.944L411.381 352.142M402.992 350.568L409.635 354.882M401.275 353.163L407.842 357.592M399.512 355.727L406.002 360.271M397.705 358.26L404.114 362.916M395.855 360.76L402.181 365.527M393.961 363.227L400.204 368.104M392.025 365.662L398.181 370.647M390.046 368.063L396.115 373.155M388.026 370.429L394.005 375.626M385.965 372.759L391.852 378.06M383.863 375.052L389.657 380.455M381.722 377.309L387.42 382.812M379.541 379.528L385.143 385.13M377.323 381.71L382.826 387.409M375.066 383.852L380.469 389.646M372.772 385.953L378.073 391.84M370.442 388.014L375.64 393.993M368.077 390.036L373.169 396.104M365.676 392.016L370.662 398.173M363.242 393.952L368.119 400.194M360.774 395.843L365.541 402.17M358.273 397.696L362.929 404.105M355.741 399.501L360.285 405.99M353.177 401.264L357.607 407.832M350.582 402.981L354.897 409.625M347.959 404.653L352.156 411.372M345.306 406.278L349.386 413.069M342.626 407.858L346.587 414.719M339.919 409.391L343.759 416.32M337.185 410.876L340.904 417.87M334.425 412.312L338.022 419.37M331.641 413.699L335.114 420.819M328.833 415.037L332.181 422.217M326.003 416.328L329.225 423.565M323.15 417.569L326.245 424.861M320.275 418.759L323.243 426.104M317.381 419.9L320.22 427.296M314.467 420.989L317.177 428.433M311.534 422.026L314.114 429.516M308.584 423.014L311.032 430.548M305.618 423.948L307.934 431.524M302.635 424.832L304.818 432.447M299.637 425.662L301.687 433.314M296.625 426.442L298.541 434.129M293.6 427.169L295.382 434.888M290.563 427.843L292.21 435.592M287.515 428.464L289.027 436.241M284.456 429.033L285.832 436.835M281.388 429.546L282.627 437.37M278.312 430.005L279.414 437.85M275.227 430.412L276.193 438.275M272.136 430.762L272.964 438.641M269.039 431.059L269.73 438.95M265.938 431.302L266.491 439.205M262.833 431.494L263.248 439.405M259.725 431.629L260.002 439.546M256.615 431.711L256.753 439.631M253.504 431.736V439.658M250.393 431.71L250.255 439.63M247.283 431.628L247.007 439.545M244.175 431.494L243.761 439.405M241.07 431.304L240.517 439.206M237.968 431.058L237.278 438.95M234.872 430.759L234.044 438.638M231.781 430.407L230.815 438.27M228.696 430L227.594 437.845M225.619 429.541L224.38 437.365M222.551 429.03L221.175 436.832M219.492 428.462L217.98 436.238M216.444 427.842L214.796 435.591M213.407 427.169L211.625 434.888M210.382 426.444L208.465 434.131M207.37 425.666L205.319 433.318M204.372 424.836L202.188 432.451M201.389 423.952L199.073 431.528M198.423 423.015L195.975 430.549M195.472 422.027L192.893 429.517M192.54 420.987L189.83 428.431M189.626 419.899L186.787 427.295M186.732 418.759L183.764 426.104M183.858 417.567L180.763 424.859M181.005 416.326L177.783 423.563M178.174 415.037L174.826 422.217M175.366 413.697L171.893 420.818M172.582 412.309L168.985 419.367M169.822 410.87L166.103 417.864M167.089 409.387L163.248 416.315M164.381 407.855L160.42 414.715M161.7 406.275L157.62 413.065M159.048 404.651L154.85 411.369M156.424 402.98L152.109 409.624M153.83 401.265L149.4 407.832M151.266 399.503L146.722 405.992M148.734 397.698L144.077 404.107M146.233 395.845L141.465 402.172M143.765 393.953L138.888 400.196M141.331 392.015L136.345 398.172M138.93 390.037L133.838 396.105M136.565 388.017L131.368 393.995M134.235 385.958L128.934 391.845M131.941 383.855L126.539 389.648M129.685 381.714L124.182 387.413M127.466 379.534L121.864 385.136M125.286 377.316L119.587 382.819M123.144 375.059L117.35 380.462M121.042 372.766L115.155 378.066M118.981 370.436L113.002 375.633M116.96 368.07L110.892 373.162M114.982 365.671L108.825 370.656M113.045 363.237L106.802 368.114M111.151 360.769L104.825 365.537M109.301 358.269L102.892 362.925M107.494 355.735L101.005 360.279M105.732 353.171L99.1649 357.601M104.015 350.576L97.3713 354.891M102.344 347.954L95.6256 352.152M100.718 345.301L93.9277 349.381M99.1392 342.619L92.2787 346.58M97.6076 339.913L90.679 343.753M96.1232 337.18L89.1286 340.899M94.6869 334.421L87.6285 338.017M93.2992 331.637L86.1791 335.11M91.9599 328.829L84.7802 332.177M90.6703 325.998L83.4333 329.22M89.4296 323.146L82.1375 326.242M88.2392 320.27L80.8941 323.238M87.0987 317.375L79.703 320.214M86.0094 314.46L78.5653 317.169M84.9713 311.529L77.481 314.108M83.9842 308.581L76.4501 311.029M83.0481 305.614L75.4724 307.93M82.1644 302.63L74.5494 304.813M81.333 299.633L73.6811 301.683M80.5541 296.62L72.8676 298.536M79.8279 293.595L72.1091 295.377M79.1547 290.557L71.4059 292.204M78.5342 287.508L70.7578 289.02M77.967 284.449L70.1655 285.825M77.4535 281.379L69.6292 282.618M76.9937 278.301L69.1489 279.404M76.5873 275.217L68.7245 276.183M76.2354 272.125L68.3569 272.954M75.9373 269.028L68.0455 269.719M75.6934 265.928L67.7908 266.48M75.5037 262.823L67.5927 263.238M75.3683 259.715L67.4513 259.992M75.2868 256.604L67.3662 256.742M75.2593 253.494H67.3374M75.2866 250.383L67.3659 250.245M75.3678 247.274L67.4508 246.998M75.504 244.165L67.593 243.75M75.6942 241.061L67.7916 240.508M75.9382 237.96L68.0465 237.269M76.2367 234.862L68.3582 234.034M76.5888 231.77L68.726 230.805M76.9949 228.686L69.1501 227.584M77.4546 225.611L69.6302 224.371M77.9675 222.542L70.166 221.167M78.5346 219.483L70.7583 217.971M79.1547 216.434L71.4059 214.787M79.8278 213.397L72.109 211.615M80.5541 210.372L72.8676 208.456M81.3332 207.363L73.6813 205.312M82.1645 204.366L74.5495 202.183M83.0475 201.384L75.4718 199.068M83.9826 198.417L76.4485 195.969M84.97 195.466L77.4797 192.887M86.0084 192.534L78.5643 189.825M87.0979 189.62L79.7022 186.781M88.2376 186.726L80.8926 183.758M89.4284 183.852L82.1362 180.757M90.6693 180.998L83.4323 177.776M91.9591 178.167L84.7794 174.819M93.2981 175.36L86.178 171.887M94.6863 172.574L87.6278 168.978M96.123 169.817L89.1284 166.098M97.6073 167.082L90.6787 163.242M99.1392 164.375L92.2787 160.414M100.718 161.696L93.9274 157.615M102.343 159.045L95.6253 154.847M104.015 156.421L97.3714 152.106M105.732 153.826L99.1647 149.396M107.494 151.261L101.005 146.717M109.301 148.727L102.892 144.07M111.152 146.225L104.825 141.457M113.045 143.758L106.803 138.881M114.982 141.324L108.825 136.339M116.961 138.924L110.892 133.832M118.981 136.56L113.002 131.362M121.042 134.229L115.154 128.929M123.143 131.936L117.349 126.533M125.285 129.679L119.586 124.176M127.465 127.462L121.863 121.861M129.684 125.282L124.181 119.584M131.94 123.14L126.538 117.347M134.234 121.04L128.933 115.152M136.564 118.98L131.367 113.001M138.929 116.96L133.837 110.892M141.33 114.98L136.344 108.823M143.764 113.045L138.887 106.802M146.232 111.149L141.465 104.823M148.733 109.299L144.076 102.89M151.265 107.493L146.721 101.004M153.829 105.732L149.399 99.1645M156.423 104.015L152.108 97.3708M159.046 102.345L154.848 95.6264M161.699 100.718L157.619 93.9273M164.379 99.1399L160.418 92.2794M167.087 97.6086L163.246 90.6799M169.821 96.1242L166.102 89.1296M172.58 94.6865L168.984 87.6281M175.364 93.2976L171.891 86.1775M178.172 91.9588L174.824 84.7791M181.003 90.6681L177.781 83.4311M183.856 89.4273L180.76 82.1352M186.729 88.2368L183.762 80.8918M189.624 87.0962L186.785 79.7005M192.537 86.0074L189.828 78.5633M195.469 84.9683L192.89 77.4781M198.419 83.9804L195.971 76.4463M201.386 83.0444L199.07 75.4686M204.369 82.162L202.186 74.547M207.367 81.3305L205.317 73.6786M210.379 80.5522L208.462 72.8656M213.404 79.825L211.622 72.1061M216.441 79.153L214.794 71.4042M219.489 78.5317L217.978 70.7553M222.548 77.967L221.172 70.1655M225.616 77.4541L224.377 69.6297M228.693 76.9949L227.59 69.1501M231.778 76.5883L230.812 68.7254M234.868 76.2339L234.04 68.3554M237.965 75.9355L237.275 68.0438M241.066 75.692L240.514 67.7894M244.172 75.5023L243.757 67.5913M247.279 75.3671L247.003 67.45M250.389 75.2856L250.251 67.3649M253.5 75.2578V67.3359M256.616 75.2827L256.754 67.362" stroke="#707070"/>
          </g>
        <g id="Tickmarks - Compass_2">
          <path id="tick-marks_2" d="M431.742 253.502H447.586M379.536 379.538L390.739 390.741M253.5 431.744V447.588M127.464 379.538L116.261 390.741M75.2578 253.5H59.4141M127.464 127.464L116.261 116.261M253.5 75.2578V59.4141M379.536 127.466L390.74 116.263" stroke="#707070"/>
          </g>
        <g id="Tickmarks - Compass_3">
          <path id="tick-marks_3" d="M253.5 75.2578V55.4531M253.5 451.547V431.742M431.742 253.5H451.547M55.4531 253.5H75.2578" stroke="#333333"/>
          </g>
        <g id="labels">
          <g id="90&#194;&#176;">
            <g id="LabelFrame">
              <path id="north-arrow" fill-rule="evenodd" clip-rule="evenodd" d="M230.137 48.8417L253.5 9.90234L276.864 48.8418C269.196 47.976 261.4 47.5312 253.5 47.5312C245.6 47.5312 237.805 47.976 230.137 48.8417Z" fill="#333333"/>
              <path id="N" d="M258.47 38.188H255.654L250.47 29.388H250.406C250.417 29.644 250.427 29.9053 250.438 30.172C250.449 30.428 250.459 30.6947 250.47 30.972C250.491 31.2387 250.507 31.5107 250.518 31.788C250.529 32.0653 250.539 32.3427 250.55 32.62V38.188H248.534V26.764H251.334L256.502 35.5H256.55C256.539 35.2547 256.529 35.004 256.518 34.748C256.507 34.492 256.497 34.2307 256.486 33.964C256.486 33.6973 256.481 33.4307 256.47 33.164C256.459 32.8973 256.449 32.6307 256.438 32.364V26.764H258.47V38.188Z" fill="white"/>
              </g>
            <g id="LabelFrame_2">
              <path id="S" d="M257.715 478.88C257.715 479.563 257.549 480.155 257.219 480.656C256.888 481.147 256.413 481.526 255.795 481.792C255.176 482.059 254.424 482.192 253.539 482.192C253.133 482.192 252.739 482.166 252.355 482.112C251.981 482.059 251.624 481.984 251.283 481.888C250.941 481.792 250.621 481.675 250.323 481.536V479.44C250.835 479.664 251.379 479.872 251.955 480.064C252.541 480.246 253.123 480.336 253.699 480.336C254.125 480.336 254.472 480.278 254.739 480.16C255.005 480.043 255.203 479.888 255.331 479.696C255.459 479.494 255.523 479.264 255.523 479.008C255.523 478.699 255.427 478.438 255.235 478.224C255.053 478.011 254.787 477.814 254.435 477.632C254.093 477.451 253.688 477.254 253.219 477.04C252.909 476.902 252.595 476.742 252.275 476.56C251.955 476.379 251.656 476.16 251.379 475.904C251.101 475.638 250.877 475.323 250.707 474.96C250.536 474.587 250.451 474.144 250.451 473.632C250.451 472.96 250.605 472.39 250.915 471.92C251.235 471.44 251.683 471.078 252.259 470.832C252.835 470.576 253.507 470.448 254.275 470.448C254.883 470.448 255.453 470.518 255.987 470.656C256.52 470.784 257.069 470.971 257.635 471.216L256.915 472.976C256.413 472.774 255.949 472.614 255.523 472.496C255.096 472.379 254.659 472.32 254.211 472.32C253.88 472.32 253.597 472.374 253.363 472.48C253.128 472.587 252.947 472.731 252.819 472.912C252.701 473.094 252.643 473.312 252.643 473.568C252.643 473.856 252.723 474.102 252.883 474.304C253.043 474.507 253.288 474.699 253.619 474.88C253.949 475.051 254.365 475.254 254.867 475.488C255.475 475.755 255.987 476.038 256.403 476.336C256.829 476.635 257.155 476.987 257.379 477.392C257.603 477.787 257.715 478.283 257.715 478.88Z" fill="#1A1A1A"/>
              </g>
            <g id="LabelFrame_3">
              <path id="E" d="M480.063 259.477H473.519V248.053H480.063V249.909H475.759V252.613H479.775V254.453H475.759V257.621H480.063V259.477Z" fill="#1A1A1A"/>
              </g>
            <g id="LabelFrame_4">
              <path id="W" d="M38.5702 248.053L35.6262 259.477H33.1142L31.4342 253.189C31.4022 253.061 31.3595 252.88 31.3062 252.645C31.2529 252.41 31.1942 252.16 31.1302 251.893C31.0769 251.626 31.0289 251.376 30.9862 251.141C30.9542 250.906 30.9275 250.725 30.9062 250.597C30.8955 250.725 30.8689 250.906 30.8262 251.141C30.7835 251.376 30.7355 251.626 30.6822 251.893C30.6289 252.149 30.5702 252.4 30.5062 252.645C30.4529 252.88 30.4102 253.072 30.3782 253.221L28.7142 259.477H26.2182L23.2742 248.053H25.4982L27.0182 254.437C27.0609 254.629 27.1089 254.853 27.1622 255.109C27.2155 255.365 27.2689 255.632 27.3222 255.909C27.3755 256.176 27.4235 256.437 27.4662 256.693C27.5089 256.949 27.5409 257.173 27.5622 257.365C27.5942 257.162 27.6262 256.938 27.6582 256.693C27.7009 256.437 27.7489 256.176 27.8022 255.909C27.8555 255.642 27.9089 255.392 27.9622 255.157C28.0155 254.912 28.0635 254.709 28.1062 254.549L29.8502 248.053H31.9782L33.7222 254.549C33.7649 254.709 33.8129 254.912 33.8662 255.157C33.9195 255.402 33.9729 255.658 34.0262 255.925C34.0795 256.192 34.1275 256.453 34.1702 256.709C34.2129 256.965 34.2449 257.184 34.2662 257.365C34.2982 257.098 34.3462 256.789 34.4102 256.437C34.4742 256.085 34.5435 255.728 34.6182 255.365C34.7035 255.002 34.7729 254.688 34.8262 254.421L36.3462 248.053H38.5702Z" fill="#1A1A1A"/>
              </g>
            </g>
          <g id="45&#194;&#176;">
            <g id="LabelFrame_5">
              <path id="NE" d="M411.35 102.528L409.878 102.528L403.606 92.8956L403.542 92.8956C403.553 93.0876 403.563 93.3009 403.574 93.5356C403.595 93.7596 403.611 94.0049 403.622 94.2716C403.633 94.5276 403.638 94.7943 403.638 95.0716C403.649 95.3489 403.654 95.6263 403.654 95.9036L403.654 102.528L402.47 102.528L402.47 91.1036L403.926 91.1036L410.182 100.704L410.23 100.704C410.23 100.565 410.225 100.384 410.214 100.16C410.203 99.9356 410.193 99.6903 410.182 99.4236C410.171 99.1463 410.161 98.8689 410.15 98.5916C410.139 98.3036 410.134 98.0369 410.134 97.7916L410.134 91.1036L411.35 91.1036L411.35 102.528ZM420.837 102.528L414.485 102.528L414.485 91.1036L420.837 91.1036L420.837 92.2396L415.765 92.2396L415.765 95.9836L420.533 95.9836L420.533 97.1036L415.765 97.1036L415.765 101.392L420.837 101.392L420.837 102.528Z" fill="#1A1A1A"/>
              </g>
            <g id="LabelFrame_6">
              <path id="SW" d="M92.3569 414.244C92.3569 414.927 92.1916 415.503 91.8609 415.972C91.5303 416.442 91.0556 416.804 90.4369 417.06C89.8289 417.306 89.1196 417.428 88.3089 417.428C87.8823 417.428 87.4716 417.407 87.0769 417.364C86.6929 417.322 86.3409 417.263 86.0209 417.188C85.7116 417.103 85.4343 417.007 85.1889 416.9V415.652C85.5729 415.823 86.0476 415.978 86.6129 416.116C87.1783 416.244 87.7649 416.308 88.3729 416.308C88.9489 416.308 89.4343 416.234 89.8289 416.084C90.2343 415.924 90.5436 415.7 90.7569 415.412C90.9703 415.114 91.0769 414.756 91.0769 414.34C91.0769 413.946 90.9863 413.615 90.8049 413.348C90.6343 413.082 90.3463 412.842 89.9409 412.628C89.5356 412.404 88.9916 412.175 88.3089 411.94C87.8183 411.759 87.3863 411.567 87.0129 411.364C86.6503 411.162 86.3409 410.932 86.0849 410.676C85.8396 410.42 85.6529 410.122 85.5249 409.78C85.3969 409.439 85.3329 409.044 85.3329 408.596C85.3329 407.978 85.4876 407.455 85.7969 407.028C86.1063 406.591 86.5329 406.26 87.0769 406.036C87.6316 405.802 88.2609 405.684 88.9649 405.684C89.5836 405.684 90.1489 405.743 90.6609 405.86C91.1729 405.967 91.6476 406.122 92.0849 406.324L91.6689 407.412C91.2636 407.242 90.8263 407.103 90.3569 406.996C89.8983 406.879 89.4236 406.82 88.9329 406.82C88.4423 406.82 88.0263 406.895 87.6849 407.044C87.3436 407.183 87.0823 407.386 86.9009 407.652C86.7196 407.919 86.6289 408.234 86.6289 408.596C86.6289 409.012 86.7143 409.354 86.8849 409.62C87.0663 409.887 87.3436 410.122 87.7169 410.324C88.1009 410.527 88.5916 410.74 89.1889 410.964C89.8716 411.21 90.4476 411.471 90.9169 411.748C91.3863 412.026 91.7436 412.362 91.9889 412.756C92.2343 413.14 92.3569 413.636 92.3569 414.244ZM107.603 405.844L104.547 417.268H103.251L100.979 409.508C100.915 409.295 100.851 409.082 100.787 408.868C100.733 408.644 100.68 408.436 100.627 408.244C100.584 408.042 100.541 407.866 100.499 407.716C100.467 407.567 100.44 407.45 100.419 407.364C100.408 407.45 100.387 407.567 100.355 407.716C100.333 407.855 100.296 408.026 100.243 408.228C100.2 408.42 100.152 408.623 100.099 408.836C100.045 409.05 99.9866 409.268 99.9226 409.492L97.6986 417.268H96.4026L93.3626 405.844H94.7066L96.5786 413.076C96.6319 413.311 96.6852 413.546 96.7386 413.78C96.7919 414.004 96.8399 414.228 96.8826 414.452C96.9359 414.666 96.9786 414.874 97.0106 415.076C97.0426 415.279 97.0746 415.476 97.1066 415.668C97.1386 415.466 97.1706 415.263 97.2026 415.06C97.2452 414.847 97.2932 414.628 97.3466 414.404C97.3999 414.17 97.4532 413.935 97.5066 413.7C97.5706 413.466 97.6346 413.236 97.6986 413.012L99.7786 405.844H101.107L103.251 413.06C103.325 413.295 103.389 413.535 103.443 413.78C103.507 414.015 103.565 414.244 103.619 414.468C103.672 414.682 103.715 414.895 103.747 415.108C103.789 415.311 103.827 415.503 103.859 415.684C103.891 415.428 103.928 415.162 103.971 414.884C104.024 414.607 104.088 414.319 104.163 414.02C104.237 413.711 104.317 413.396 104.403 413.076L106.259 405.844H107.603Z" fill="#1A1A1A"/>
              </g>
            <g id="LabelFrame_7">
              <path id="SE" d="M410.027 414.244C410.027 414.927 409.862 415.503 409.531 415.972C409.2 416.441 408.726 416.804 408.107 417.06C407.499 417.305 406.79 417.428 405.979 417.428C405.552 417.428 405.142 417.407 404.747 417.364C404.363 417.321 404.011 417.263 403.691 417.188C403.382 417.103 403.104 417.007 402.859 416.9L402.859 415.652C403.243 415.823 403.718 415.977 404.283 416.116C404.848 416.244 405.435 416.308 406.043 416.308C406.619 416.308 407.104 416.233 407.499 416.084C407.904 415.924 408.214 415.7 408.427 415.412C408.64 415.113 408.747 414.756 408.747 414.34C408.747 413.945 408.656 413.615 408.475 413.348C408.304 413.081 408.016 412.841 407.611 412.628C407.206 412.404 406.662 412.175 405.979 411.94C405.488 411.759 405.056 411.567 404.683 411.364C404.32 411.161 404.011 410.932 403.755 410.676C403.51 410.42 403.323 410.121 403.195 409.78C403.067 409.439 403.003 409.044 403.003 408.596C403.003 407.977 403.158 407.455 403.467 407.028C403.776 406.591 404.203 406.26 404.747 406.036C405.302 405.801 405.931 405.684 406.635 405.684C407.254 405.684 407.819 405.743 408.331 405.86C408.843 405.967 409.318 406.121 409.755 406.324L409.339 407.412C408.934 407.241 408.496 407.103 408.027 406.996C407.568 406.879 407.094 406.82 406.603 406.82C406.112 406.82 405.696 406.895 405.355 407.044C405.014 407.183 404.752 407.385 404.571 407.652C404.39 407.919 404.299 408.233 404.299 408.596C404.299 409.012 404.384 409.353 404.555 409.62C404.736 409.887 405.014 410.121 405.387 410.324C405.771 410.527 406.262 410.74 406.859 410.964C407.542 411.209 408.118 411.471 408.587 411.748C409.056 412.025 409.414 412.361 409.659 412.756C409.904 413.14 410.027 413.636 410.027 414.244ZM418.712 417.268L412.36 417.268L412.36 405.844L418.712 405.844L418.712 406.98L413.64 406.98L413.64 410.724L418.408 410.724L418.408 411.844L413.64 411.844L413.64 416.132L418.712 416.132L418.712 417.268Z" fill="#1A1A1A"/>
              </g>
            <g id="LabelFrame_8">
              <path id="NW" d="M93.6799 102.528L92.2079 102.528L85.9359 92.8956L85.8719 92.8956C85.8826 93.0876 85.8933 93.3009 85.9039 93.5356C85.9253 93.7596 85.9413 94.0049 85.9519 94.2716C85.9626 94.5276 85.9679 94.7943 85.9679 95.0716C85.9786 95.3489 85.9839 95.6263 85.9839 95.9036L85.9839 102.528L84.7999 102.528L84.7999 91.1036L86.2559 91.1036L92.5119 100.704L92.5599 100.704C92.5599 100.565 92.5546 100.384 92.5439 100.16C92.5333 99.9356 92.5226 99.6903 92.5119 99.4236C92.5013 99.1463 92.4906 98.8689 92.4799 98.5916C92.4693 98.3036 92.4639 98.0369 92.4639 97.7916L92.4639 91.1036L93.6799 91.1036L93.6799 102.528ZM109.728 91.1036L106.672 102.528L105.376 102.528L103.104 94.7676C103.04 94.5543 102.976 94.3409 102.912 94.1276C102.858 93.9036 102.805 93.6956 102.752 93.5036C102.709 93.3009 102.666 93.1249 102.624 92.9756C102.592 92.8263 102.565 92.7089 102.544 92.6236C102.533 92.7089 102.512 92.8263 102.48 92.9756C102.458 93.1143 102.421 93.2849 102.368 93.4876C102.325 93.6796 102.277 93.8823 102.224 94.0956C102.17 94.3089 102.112 94.5276 102.048 94.7516L99.8236 102.528L98.5276 102.528L95.4876 91.1036L96.8316 91.1036L98.7036 98.3356C98.7569 98.5703 98.8102 98.8049 98.8636 99.0396C98.9169 99.2636 98.9649 99.4876 99.0076 99.7116C99.0609 99.9249 99.1036 100.133 99.1356 100.336C99.1676 100.538 99.1996 100.736 99.2316 100.928C99.2636 100.725 99.2956 100.522 99.3276 100.32C99.3702 100.106 99.4182 99.8876 99.4716 99.6636C99.5249 99.4289 99.5782 99.1943 99.6316 98.9596C99.6956 98.7249 99.7596 98.4956 99.8236 98.2716L101.904 91.1036L103.232 91.1036L105.376 98.3196C105.45 98.5543 105.514 98.7943 105.568 99.0396C105.632 99.2743 105.69 99.5036 105.744 99.7276C105.797 99.9409 105.84 100.154 105.872 100.368C105.914 100.57 105.952 100.762 105.984 100.944C106.016 100.688 106.053 100.421 106.096 100.144C106.149 99.8663 106.213 99.5783 106.288 99.2796C106.362 98.9703 106.442 98.6556 106.528 98.3356L108.384 91.1036L109.728 91.1036Z" fill="#1A1A1A"/>
              </g>
            </g>
          </g>
        </g>
      </g>
    <g id="ROT">
      <path id="frame_3" fill-rule="evenodd" clip-rule="evenodd" d="M192.28 391.003C268.221 424.814 357.192 390.661 391.003 314.72C424.814 238.78 390.662 149.808 314.721 115.997C238.78 82.1862 149.809 116.339 115.998 192.28C82.1868 268.221 116.34 357.192 192.28 391.003ZM182.614 412.714C270.545 451.863 373.565 412.318 412.714 324.387C451.864 236.455 412.319 133.436 324.387 94.2862C236.456 55.1367 133.436 94.6821 94.2868 182.613C55.1372 270.545 94.6827 373.564 182.614 412.714Z" fill="#F7F7F7"/>
      <circle id="border-inside" cx="253.5" cy="253.5" r="151.016" transform="rotate(24 253.5 253.5)" stroke="black" stroke-opacity="0.05"/>
      <circle id="border-outisde" cx="253.501" cy="253.5" r="173.781" transform="rotate(24 253.501 253.5)" stroke="#D9D9D9"/>
      <g id="rot-dots">
        <g id="Frame 11">
          <circle id="Ellipse 14" cx="319.554" cy="105.142" r="7.92187" transform="rotate(24 319.554 105.142)" fill="#333333"/>
          </g>
        <g id="Frame 12">
          <ellipse id="Ellipse 14_2" cx="415.009" cy="270.475" rx="7.92187" ry="7.92187" transform="rotate(96 415.009 270.475)" fill="#333333"/>
          </g>
        <g id="Frame 14">
          <ellipse id="Ellipse 14_3" cx="132.815" cy="144.834" rx="7.92187" ry="7.92187" transform="rotate(-48 132.815 144.834)" fill="#333333"/>
          </g>
        <g id="Frame 13">
          <ellipse id="Ellipse 14_4" cx="112.86" cy="334.699" rx="7.92187" ry="7.92187" transform="rotate(-120 112.86 334.699)" fill="#333333"/>
          </g>
        <g id="Frame 15">
          <ellipse id="Ellipse 14_5" cx="287.265" cy="412.349" rx="7.92187" ry="7.92187" transform="rotate(168 287.265 412.349)" fill="#333333"/>
          </g>
        </g>
      </g>
    </g>
  </svg>

