<svg width="22" height="73" viewBox="0 0 22 73" fill="none" xmlns="http://www.w3.org/2000/svg">
<mask id="path-1-outside-1_34_11815" maskUnits="userSpaceOnUse" x="-0.484863" y="0.320648" width="22" height="73" fill="black">
<rect fill="white" x="-0.484863" y="0.320648" width="22" height="73"/>
<path fill-rule="evenodd" clip-rule="evenodd" d="M9.99987 64.7251V23.4946H2.51621C1.79835 23.4946 1.31432 22.7606 1.59702 22.1007L10.4999 1.32065H11.4999L20.4027 22.1007C20.6854 22.7606 20.2014 23.4946 19.4835 23.4946H11.9999V64.7251C13.7251 65.1354 14.9999 66.5823 14.9999 68.3043C14.9999 70.3454 13.209 72 10.9999 72C8.79073 72 6.99987 70.3454 6.99987 68.3043C6.99987 66.5823 8.27464 65.1354 9.99987 64.7251ZM10.9999 5.17421L18.0572 21.6467H3.94252L10.9999 5.17421Z"/>
</mask>
<path fill-rule="evenodd" clip-rule="evenodd" d="M9.99987 64.7251V23.4946H2.51621C1.79835 23.4946 1.31432 22.7606 1.59702 22.1007L10.4999 1.32065H11.4999L20.4027 22.1007C20.6854 22.7606 20.2014 23.4946 19.4835 23.4946H11.9999V64.7251C13.7251 65.1354 14.9999 66.5823 14.9999 68.3043C14.9999 70.3454 13.209 72 10.9999 72C8.79073 72 6.99987 70.3454 6.99987 68.3043C6.99987 66.5823 8.27464 65.1354 9.99987 64.7251ZM10.9999 5.17421L18.0572 21.6467H3.94252L10.9999 5.17421Z" fill="#325B9A"/>
<path d="M9.99987 23.4946H10.9999V22.4946H9.99987V23.4946ZM9.99987 64.7251L10.2312 65.698L10.9999 65.5152V64.7251H9.99987ZM1.59702 22.1007L2.51621 22.4946L2.51621 22.4946L1.59702 22.1007ZM10.4999 1.32065V0.320648H9.84039L9.58068 0.926838L10.4999 1.32065ZM11.4999 1.32065L12.4191 0.926838L12.1594 0.320648H11.4999V1.32065ZM20.4027 22.1007L19.4835 22.4946L19.4835 22.4946L20.4027 22.1007ZM11.9999 23.4946V22.4946H10.9999V23.4946H11.9999ZM11.9999 64.7251H10.9999V65.5152L11.7685 65.698L11.9999 64.7251ZM18.0572 21.6467V22.6467H19.5736L18.9764 21.2529L18.0572 21.6467ZM10.9999 5.17421L11.9191 4.7804L10.9999 2.63491L10.0807 4.7804L10.9999 5.17421ZM3.94252 21.6467L3.02333 21.2529L2.42618 22.6467H3.94252V21.6467ZM8.99987 23.4946V64.7251H10.9999V23.4946H8.99987ZM2.51621 24.4946H9.99987V22.4946H2.51621V24.4946ZM0.67783 21.7069C0.112425 23.0266 1.08048 24.4946 2.51621 24.4946V22.4946L2.51621 22.4946L0.67783 21.7069ZM9.58068 0.926838L0.67783 21.7069L2.51621 22.4946L11.4191 1.71446L9.58068 0.926838ZM11.4999 0.320648H10.4999V2.32065H11.4999V0.320648ZM21.3219 21.7069L12.4191 0.926838L10.5807 1.71446L19.4835 22.4946L21.3219 21.7069ZM19.4835 24.4946C20.9193 24.4946 21.8873 23.0266 21.3219 21.7069L19.4835 22.4946L19.4835 22.4946V24.4946ZM11.9999 24.4946H19.4835V22.4946H11.9999V24.4946ZM12.9999 64.7251V23.4946H10.9999V64.7251H12.9999ZM11.7685 65.698C13.1042 66.0156 13.9999 67.1054 13.9999 68.3043H15.9999C15.9999 66.0592 14.346 64.2551 12.2312 63.7522L11.7685 65.698ZM13.9999 68.3043C13.9999 69.7201 12.7327 71 10.9999 71V73C13.6853 73 15.9999 70.9707 15.9999 68.3043H13.9999ZM10.9999 71C9.26703 71 7.99987 69.7201 7.99987 68.3043H5.99987C5.99987 70.9707 8.31443 73 10.9999 73V71ZM7.99987 68.3043C7.99987 67.1054 8.89553 66.0156 10.2312 65.698L9.76852 63.7522C7.65376 64.2551 5.99987 66.0592 5.99987 68.3043H7.99987ZM18.9764 21.2529L11.9191 4.7804L10.0807 5.56802L17.138 22.0405L18.9764 21.2529ZM3.94252 22.6467H18.0572V20.6467H3.94252V22.6467ZM10.0807 4.7804L3.02333 21.2529L4.86171 22.0405L11.9191 5.56802L10.0807 4.7804Z" fill="#F7F7F7" mask="url(#path-1-outside-1_34_11815)"/>
</svg>
