<?xml version="1.0" encoding="UTF-8" standalone="no"?>
<svg
   width="459.71002"
   height="476.15997"
   viewBox="0 0 459.71002 476.15997"
   fill="none"
   version="1.1"
   id="svg32"
   sodipodi:docname="HeadingCircularLablel.svg"
   inkscape:export-filename="HeadingCircular.svg"
   inkscape:export-xdpi="96"
   inkscape:export-ydpi="96"
   xmlns:inkscape="http://www.inkscape.org/namespaces/inkscape"
   xmlns:sodipodi="http://sodipodi.sourceforge.net/DTD/sodipodi-0.dtd"
   xmlns="http://www.w3.org/2000/svg"
   xmlns:svg="http://www.w3.org/2000/svg">
  <sodipodi:namedview
     id="namedview32"
     pagecolor="#ffffff"
     bordercolor="#000000"
     borderopacity="0.25"
     inkscape:showpageshadow="2"
     inkscape:pageopacity="0.0"
     inkscape:pagecheckerboard="0"
     inkscape:deskcolor="#d1d1d1" />
  <g
     id="g32"
     inkscape:export-filename="HeadingCircularLable.svg"
     inkscape:export-xdpi="96"
     inkscape:export-ydpi="96"
     transform="translate(-106.313,-92)">
    <path
       d="m 338,538.5 c 110.733,0 200.5,-89.767 200.5,-200.5 0,-110.733 -89.767,-200.5 -200.5,-200.5 -110.733,0 -200.5,89.767 -200.5,200.5 0,110.733 89.767,200.5 200.5,200.5 z M 513.5,338 c 0,96.926 -78.574,175.5 -175.5,175.5 -96.926,0 -175.5,-78.574 -175.5,-175.5 0,-96.926 78.574,-175.5 175.5,-175.5 96.926,0 175.5,78.574 175.5,175.5 z"
       fill="#ffffff"
       stroke="#d9d9d9"
       id="path1" />
    <path
       d="M 338,162 V 514 M 514,338 H 162"
       stroke="#d9d9d9"
       id="path2" />
    <path
       d="m 518,338.002 h 16 m -68.721,127.279 11.314,11.314 M 338,518.002 v 16 M 210.721,465.281 199.407,476.594 M 158,338 H 142 M 210.721,210.721 199.407,199.407 M 338,158 v -16 m 127.279,68.723 11.314,-11.314"
       stroke="#d9d9d9"
       id="path3" />
    <path
       d="m 338,158 v -20 m 0,400 V 518 M 518,338 h 20 m -400,0 h 20"
       stroke="#d9d9d9"
       id="path4" />
    <path
       fill-rule="evenodd"
       clip-rule="evenodd"
       d="M 314.406,131.323 338,92 361.594,131.323 C 353.85,130.449 345.977,130 338,130 c -7.978,0 -15.85,0.449 -23.594,1.323 z"
       fill="#707070"
       id="path5" />
    <path
       d="m 342.784,120 h -2.912 l -5.104,-8.736 h -0.064 c 0.011,0.256 0.021,0.517 0.032,0.784 0.011,0.267 0.021,0.539 0.032,0.816 0.021,0.267 0.037,0.539 0.048,0.816 0.011,0.277 0.021,0.555 0.032,0.832 V 120 h -2.064 v -11.424 h 2.896 l 5.088,8.656 h 0.048 c -0.011,-0.245 -0.021,-0.496 -0.032,-0.752 -0.011,-0.267 -0.021,-0.528 -0.032,-0.784 0,-0.267 -0.005,-0.533 -0.016,-0.8 -0.011,-0.267 -0.021,-0.533 -0.032,-0.8 v -5.52 h 2.08 z"
       fill="#ffffff"
       id="path6" />
    <path
       d="m 342.254,564.848 c 0,0.672 -0.166,1.259 -0.496,1.76 -0.331,0.491 -0.811,0.875 -1.44,1.152 -0.619,0.267 -1.371,0.4 -2.256,0.4 -0.395,0 -0.784,-0.027 -1.168,-0.08 -0.384,-0.053 -0.747,-0.128 -1.088,-0.224 -0.342,-0.096 -0.662,-0.219 -0.96,-0.368 v -2.16 c 0.522,0.235 1.072,0.448 1.648,0.64 0.586,0.181 1.168,0.272 1.744,0.272 0.416,0 0.752,-0.053 1.008,-0.16 0.256,-0.117 0.442,-0.272 0.56,-0.464 0.128,-0.192 0.192,-0.411 0.192,-0.656 0,-0.299 -0.102,-0.549 -0.304,-0.752 -0.192,-0.213 -0.459,-0.411 -0.8,-0.592 -0.331,-0.181 -0.726,-0.373 -1.184,-0.576 -0.288,-0.139 -0.592,-0.299 -0.912,-0.48 -0.31,-0.181 -0.608,-0.4 -0.896,-0.656 -0.278,-0.267 -0.502,-0.581 -0.672,-0.944 -0.171,-0.373 -0.256,-0.816 -0.256,-1.328 0,-0.683 0.154,-1.259 0.464,-1.728 0.32,-0.48 0.768,-0.848 1.344,-1.104 0.576,-0.256 1.253,-0.384 2.032,-0.384 0.597,0 1.162,0.069 1.696,0.208 0.544,0.139 1.098,0.331 1.664,0.576 l -0.736,1.808 c -0.512,-0.203 -0.982,-0.363 -1.408,-0.48 -0.416,-0.117 -0.848,-0.176 -1.296,-0.176 -0.31,0 -0.582,0.053 -0.816,0.16 -0.224,0.096 -0.395,0.235 -0.512,0.416 -0.118,0.171 -0.176,0.379 -0.176,0.624 0,0.288 0.08,0.528 0.24,0.72 0.16,0.192 0.4,0.379 0.72,0.56 0.33,0.171 0.746,0.373 1.248,0.608 0.597,0.267 1.104,0.549 1.52,0.848 0.416,0.299 0.736,0.651 0.96,1.056 0.224,0.405 0.336,0.907 0.336,1.504 z"
       fill="#707070"
       id="path7" />
    <path
       d="m 566.023,344 h -6.544 v -11.424 h 6.544 v 1.904 h -4.24 v 2.624 h 3.952 v 1.904 h -3.952 v 3.072 h 4.24 z"
       fill="#707070"
       id="path8" />
    <path
       d="M 121.673,332.576 118.745,344 h -2.592 l -1.632,-6.176 c -0.032,-0.128 -0.075,-0.309 -0.128,-0.544 -0.053,-0.235 -0.112,-0.485 -0.176,-0.752 -0.053,-0.267 -0.101,-0.517 -0.144,-0.752 -0.043,-0.245 -0.069,-0.437 -0.08,-0.576 -0.011,0.139 -0.043,0.331 -0.096,0.576 -0.043,0.235 -0.091,0.485 -0.144,0.752 -0.053,0.256 -0.107,0.507 -0.16,0.752 -0.053,0.235 -0.101,0.427 -0.144,0.576 l -1.6,6.144 h -2.608 l -2.928,-11.424 h 2.288 l 1.488,6.32 c 0.053,0.192 0.107,0.416 0.16,0.672 0.053,0.256 0.107,0.523 0.16,0.8 0.053,0.277 0.101,0.549 0.144,0.816 0.043,0.256 0.075,0.48 0.096,0.672 0.021,-0.203 0.053,-0.432 0.096,-0.688 0.043,-0.256 0.091,-0.517 0.144,-0.784 0.053,-0.267 0.107,-0.517 0.16,-0.752 0.053,-0.245 0.101,-0.443 0.144,-0.592 l 1.696,-6.464 h 2.208 l 1.712,6.464 c 0.032,0.149 0.075,0.347 0.128,0.592 0.053,0.235 0.107,0.491 0.16,0.768 0.053,0.267 0.101,0.528 0.144,0.784 0.043,0.256 0.075,0.48 0.096,0.672 0.032,-0.267 0.08,-0.576 0.144,-0.928 0.064,-0.363 0.133,-0.725 0.208,-1.088 0.085,-0.373 0.155,-0.688 0.208,-0.944 l 1.504,-6.32 z"
       fill="#707070"
       id="path9" />
    <path
       fill-rule="evenodd"
       clip-rule="evenodd"
       d="m 276.177,476.859 c 76.689,34.144 166.538,-0.345 200.682,-77.035 34.145,-76.69 -0.345,-166.538 -77.034,-200.683 -76.69,-34.144 -166.539,0.345 -200.683,77.035 -34.145,76.69 0.345,166.539 77.035,200.683 z m -9.762,21.925 c 88.798,39.536 192.834,-0.4 232.37,-89.198 39.535,-88.799 -0.4,-192.834 -89.199,-232.37 -88.798,-39.536 -192.834,0.4 -232.369,89.198 -39.536,88.799 0.399,192.834 89.198,232.37 z"
       fill="#f0f0f0"
       id="path10" />
    <circle
       cx="338.00101"
       cy="338"
       r="152.5"
       transform="rotate(24,338.001,338)"
       stroke="#d9d9d9"
       id="circle10" />
    <circle
       cx="338.00101"
       cy="338"
       r="175.5"
       transform="rotate(24,338.001,338)"
       stroke="#d9d9d9"
       id="circle11" />
    <circle
       cx="404.70599"
       cy="188.179"
       transform="rotate(24,404.706,188.179)"
       fill="#666666"
       id="ellipse11"
       r="8" />
    <circle
       cx="501.10199"
       cy="355.14301"
       transform="rotate(96,501.102,355.143)"
       fill="#666666"
       id="ellipse12"
       r="8" />
    <circle
       cx="216.125"
       cy="228.263"
       transform="rotate(-48,216.125,228.263)"
       fill="#666666"
       id="ellipse13"
       r="8" />
    <circle
       cx="195.97301"
       cy="420"
       transform="rotate(-120,195.973,420)"
       fill="#666666"
       id="ellipse14"
       r="8" />
    <circle
       cx="372.09799"
       cy="498.41599"
       transform="rotate(168,372.098,498.416)"
       fill="#666666"
       id="ellipse15"
       r="8" />
    <path
       d="m 327.361,302.888 c 9.074,-20.382 33.708,-33.43 39.923,-30.663 6.215,2.767 13.304,29.125 3.927,50.186 l -38.132,85.645 c -1.347,3.027 -4.894,4.389 -7.921,3.041 L 292.27,396.454 c -3.027,-1.348 -4.389,-4.894 -3.041,-7.921 z"
       fill="#ffffff"
       stroke="#707070"
       id="path17" />
    <path
       fill-rule="evenodd"
       clip-rule="evenodd"
       d="m 338.659,337.747 26.95,11.999 -0.407,0.913 -54.813,-24.404 0.407,-0.914 26.95,11.999 31.522,-70.8 0.913,0.407 z"
       fill="#707070"
       id="path18" />
    <circle
       cx="337.99899"
       cy="338.00101"
       r="8"
       transform="rotate(24,337.999,338.001)"
       fill="#325b9a"
       id="circle20" />
    <rect
       x="218.5"
       y="218.5"
       width="239"
       height="239"
       rx="119.5"
       fill="#ffffff"
       id="rect21"
       ry="119.5" />
    <rect
       x="218.5"
       y="218.5"
       width="239"
       height="239"
       rx="119.5"
       stroke="#d9d9d9"
       id="rect22"
       ry="119.5" />
  </g>
  <defs
     id="defs32" />
</svg>
