<svg width="200" height="200" viewBox="0 0 200 200" fill="none" xmlns="http://www.w3.org/2000/svg">
  <g id="Group 46">
    <g id="Group 45">
      <path id="frame" fill-rule="evenodd" clip-rule="evenodd" d="M100.5 159.659C133.173 159.659 159.659 133.173 159.659 100.5C159.659 67.8273 133.173 41.3409 100.5 41.3409C67.8273 41.3409 41.3409 67.8273 41.3409 100.5C41.3409 133.173 67.8273 159.659 100.5 159.659ZM100.5 169C138.332 169 169 138.332 169 100.5C169 62.6685 138.332 32 100.5 32C62.6685 32 32 62.6685 32 100.5C32 138.332 62.6685 169 100.5 169Z" fill="#F7F7F7"/>
      <path id="frame_2" fill-rule="evenodd" clip-rule="evenodd" d="M100 152.682C129.095 152.682 152.682 129.095 152.682 100C152.682 70.9046 129.095 47.3182 100 47.3182C70.9046 47.3182 47.3182 70.9046 47.3182 100C47.3182 129.095 70.9046 152.682 100 152.682ZM100 161C133.689 161 161 133.689 161 100C161 66.3106 133.689 39 100 39C66.3106 39 39 66.3106 39 100C39 133.689 66.3106 161 100 161Z" fill="#E3E3E3"/>
      <g id="Compass watchface">
        <g id="Watchface">
          <g id="frame_3">
            <path id="frame_4" d="M100 178.625C143.423 178.625 178.625 143.423 178.625 100C178.625 56.5766 143.423 21.375 100 21.375C56.5766 21.375 21.375 56.5766 21.375 100C21.375 143.423 56.5766 178.625 100 178.625ZM168.25 100C168.25 137.693 137.693 168.25 100 168.25C62.3066 168.25 31.75 137.693 31.75 100C31.75 62.3066 62.3066 31.75 100 31.75C137.693 31.75 168.25 62.3066 168.25 100Z" fill="white" stroke="#D9D9D9"/>
            </g>
          <path id="center-cross" d="M100 31.25V168.75M168.75 100H31.25" stroke="black" stroke-opacity="0.05"/>
          <g id="Tickmarks - Compass">
            <path id="tick-marks" d="M170.313 100.001H176.563M149.718 149.719L154.138 154.139M100 170.313V176.563M50.2816 149.719L45.8621 154.138M29.6875 100H23.4375M50.2816 50.2816L45.8621 45.8622M100 29.6875V23.4375M149.718 50.2825L154.138 45.8631" stroke="#707070"/>
            </g>
          <g id="Tickmarks - Compass_2">
            <path id="tick-marks_2" d="M100 29.6875V21.875M100 178.125V170.312M170.312 100H178.125M21.875 100H29.6875" stroke="#333333"/>
            </g>
          <g id="labels">
            <g id="90&#194;&#176;">
              <g id="LabelFrame">
                <path id="north-arrow" fill-rule="evenodd" clip-rule="evenodd" d="M90.7837 19.2669L100 3.90625L109.217 19.267C106.192 18.9254 103.116 18.75 99.9999 18.75C96.8837 18.75 93.8086 18.9254 90.7837 19.2669Z" fill="#333333"/>
                <path id="N" d="M103.106 17.9637H101.346L98.1063 12.4637H98.0663C98.073 12.6237 98.0797 12.7871 98.0863 12.9537C98.093 13.1137 98.0997 13.2804 98.1063 13.4537C98.1197 13.6204 98.1297 13.7904 98.1363 13.9637C98.143 14.1371 98.1497 14.3104 98.1563 14.4837V17.9637H96.8963V10.8237H98.6463L101.876 16.2837H101.906C101.9 16.1304 101.893 15.9737 101.886 15.8137C101.88 15.6537 101.873 15.4904 101.866 15.3237C101.866 15.1571 101.863 14.9904 101.856 14.8237C101.85 14.6571 101.843 14.4904 101.836 14.3237V10.8237H103.106V17.9637Z" fill="white"/>
                </g>
              <g id="LabelFrame_2">
                <path id="S" d="M102.254 189.741C102.254 190.168 102.151 190.538 101.944 190.851C101.737 191.158 101.441 191.394 101.054 191.561C100.667 191.728 100.197 191.811 99.6441 191.811C99.3907 191.811 99.1441 191.794 98.9041 191.761C98.6707 191.728 98.4474 191.681 98.2341 191.621C98.0207 191.561 97.8207 191.488 97.6341 191.401V190.091C97.9541 190.231 98.2941 190.361 98.6541 190.481C99.0207 190.594 99.3841 190.651 99.7441 190.651C100.011 190.651 100.227 190.614 100.394 190.541C100.561 190.468 100.684 190.371 100.764 190.251C100.844 190.124 100.884 189.981 100.884 189.821C100.884 189.628 100.824 189.464 100.704 189.331C100.591 189.198 100.424 189.074 100.204 188.961C99.9907 188.848 99.7374 188.724 99.4441 188.591C99.2507 188.504 99.0541 188.404 98.8541 188.291C98.6541 188.178 98.4674 188.041 98.2941 187.881C98.1207 187.714 97.9807 187.518 97.8741 187.291C97.7674 187.058 97.7141 186.781 97.7141 186.461C97.7141 186.041 97.8107 185.684 98.0041 185.391C98.2041 185.091 98.4841 184.864 98.8441 184.711C99.2041 184.551 99.6241 184.471 100.104 184.471C100.484 184.471 100.841 184.514 101.174 184.601C101.507 184.681 101.851 184.798 102.204 184.951L101.754 186.051C101.441 185.924 101.151 185.824 100.884 185.751C100.617 185.678 100.344 185.641 100.064 185.641C99.8574 185.641 99.6807 185.674 99.5341 185.741C99.3874 185.808 99.2741 185.898 99.1941 186.011C99.1207 186.124 99.0841 186.261 99.0841 186.421C99.0841 186.601 99.1341 186.754 99.2341 186.881C99.3341 187.008 99.4874 187.128 99.6941 187.241C99.9007 187.348 100.161 187.474 100.474 187.621C100.854 187.788 101.174 187.964 101.434 188.151C101.701 188.338 101.904 188.558 102.044 188.811C102.184 189.058 102.254 189.368 102.254 189.741Z" fill="#1A1A1A"/>
                </g>
              <g id="LabelFrame_3">
                <path id="E" d="M189.918 103.918H185.828V96.778H189.918V97.938H187.228V99.628H189.738V100.778H187.228V102.758H189.918V103.918Z" fill="#1A1A1A"/>
                </g>
              <g id="LabelFrame_4">
                <path id="W" d="M16.9052 96.778L15.0652 103.918H13.4952L12.4452 99.988C12.4252 99.908 12.3985 99.7946 12.3652 99.648C12.3319 99.5013 12.2952 99.3446 12.2552 99.178C12.2219 99.0113 12.1919 98.8546 12.1652 98.708C12.1452 98.5613 12.1285 98.448 12.1152 98.368C12.1085 98.448 12.0919 98.5613 12.0652 98.708C12.0385 98.8546 12.0085 99.0113 11.9752 99.178C11.9419 99.338 11.9052 99.4946 11.8652 99.648C11.8319 99.7946 11.8052 99.9146 11.7852 100.008L10.7452 103.918H9.1852L7.3452 96.778H8.7352L9.6852 100.768C9.71186 100.888 9.74186 101.028 9.7752 101.188C9.80853 101.348 9.84186 101.515 9.8752 101.688C9.90853 101.855 9.93853 102.018 9.9652 102.178C9.99186 102.338 10.0119 102.478 10.0252 102.598C10.0452 102.471 10.0652 102.331 10.0852 102.178C10.1119 102.018 10.1419 101.855 10.1752 101.688C10.2085 101.521 10.2419 101.365 10.2752 101.218C10.3085 101.065 10.3385 100.938 10.3652 100.838L11.4552 96.778H12.7852L13.8752 100.838C13.9019 100.938 13.9319 101.065 13.9652 101.218C13.9985 101.371 14.0319 101.531 14.0652 101.698C14.0985 101.865 14.1285 102.028 14.1552 102.188C14.1819 102.348 14.2019 102.485 14.2152 102.598C14.2352 102.431 14.2652 102.238 14.3052 102.018C14.3452 101.798 14.3885 101.575 14.4352 101.348C14.4885 101.121 14.5319 100.925 14.5652 100.758L15.5152 96.778H16.9052Z" fill="#1A1A1A"/>
                </g>
              </g>
            </g>
          </g>
        </g>
      <g id="rot-dots">
        <g id="Frame 11">
          <circle id="Ellipse 14" cx="100.5" cy="36.1395" r="3.13954" fill="#333333"/>
          </g>
        <g id="Frame 12">
          <ellipse id="Ellipse 14_2" cx="161.71" cy="80.6116" rx="3.13954" ry="3.13953" transform="rotate(72 161.71 80.6116)" fill="#333333"/>
          </g>
        <g id="Frame 14">
          <ellipse id="Ellipse 14_3" cx="39.2895" cy="80.6115" rx="3.13953" ry="3.13954" transform="rotate(-72 39.2895 80.6115)" fill="#333333"/>
          </g>
        <g id="Frame 13">
          <circle id="Ellipse 14_4" cx="62.6697" cy="152.569" r="3.13953" transform="rotate(-144 62.6697 152.569)" fill="#333333"/>
          </g>
        <g id="Frame 15">
          <ellipse id="Ellipse 14_5" cx="138.33" cy="152.569" rx="3.13953" ry="3.13953" transform="rotate(144 138.33 152.569)" fill="#333333"/>
          </g>
        <g id="container-data">
          <rect x="45.5" y="45.5" width="109" height="109" rx="54.5" fill="white"/>
          <rect x="45.5" y="45.5" width="109" height="109" rx="54.5" stroke="#D9D9D9"/>
          </g>
        </g>
      </g>
    </g>
  </svg>

