<?xml version="1.0" encoding="UTF-8" standalone="no"?>
<!-- Created with Inkscape (http://www.inkscape.org/) -->

<svg
  width="183.17261"
  height="183.55573"
  viewBox="0 0 183.17261 183.55573"
  version="1.1"
  id="svg1"
  xml:space="preserve"
  xmlns:xlink="http://www.w3.org/1999/xlink"
  xmlns="http://www.w3.org/2000/svg"
  xmlns:svg="http://www.w3.org/2000/svg"><defs
    id="defs1"><linearGradient
      id="linearGradient134"><stop
        style="stop-color:#999999;stop-opacity:1;"
        offset="0"
        id="stop134" /><stop
        style="stop-color:#353535;stop-opacity:1;"
        offset="1"
        id="stop133" /></linearGradient><linearGradient
      id="linearGradient131"><stop
        style="stop-color:#353535;stop-opacity:1;"
        offset="0"
        id="stop131" /><stop
        style="stop-color:#999999;stop-opacity:1;"
        offset="1"
        id="stop132" /></linearGradient><linearGradient
      id="linearGradient15"><stop
        style="stop-color:#3c3c3c;stop-opacity:0;"
        offset="0"
        id="stop14" /><stop
        style="stop-color:#000000;stop-opacity:1;"
        offset="1"
        id="stop15" /></linearGradient><linearGradient
      id="linearGradient12"><stop
        style="stop-color:#000000;stop-opacity:0;"
        offset="0"
        id="stop12" /><stop
        style="stop-color:#060606;stop-opacity:1;"
        offset="1"
        id="stop11" /></linearGradient><linearGradient
      id="linearGradient8"><stop
        style="stop-color:#808080;stop-opacity:1;"
        offset="0"
        id="stop8" /><stop
        style="stop-color:#808080;stop-opacity:0;"
        offset="1"
        id="stop9" /></linearGradient><linearGradient
      xlink:href="#linearGradient8"
      id="linearGradient9"
      x1="895.12372"
      y1="299.78497"
      x2="909.43408"
      y2="273.55054"
      gradientUnits="userSpaceOnUse" /><linearGradient
      xlink:href="#linearGradient12"
      id="linearGradient11"
      x1="932.4046"
      y1="313.68549"
      x2="914.30933"
      y2="345.16675"
      gradientUnits="userSpaceOnUse"
      gradientTransform="translate(-41.513156,-14.564896)" /><linearGradient
      xlink:href="#linearGradient15"
      id="linearGradient14"
      gradientUnits="userSpaceOnUse"
      x1="907.85272"
      y1="290.5275"
      x2="923.04596"
      y2="264.53293"
      gradientTransform="translate(-2.2e-5)" /><linearGradient
      xlink:href="#linearGradient8"
      id="linearGradient17"
      gradientUnits="userSpaceOnUse"
      x1="895.12372"
      y1="299.78497"
      x2="909.43408"
      y2="273.55054" /><linearGradient
      xlink:href="#linearGradient12"
      id="linearGradient18"
      gradientUnits="userSpaceOnUse"
      gradientTransform="translate(-41.513156,-14.564896)"
      x1="932.4046"
      y1="313.68549"
      x2="914.30933"
      y2="345.16675" /><linearGradient
      xlink:href="#linearGradient15"
      id="linearGradient19"
      gradientUnits="userSpaceOnUse"
      gradientTransform="translate(-2.2e-5)"
      x1="907.85272"
      y1="290.5275"
      x2="923.04596"
      y2="264.53293" /><linearGradient
      xlink:href="#linearGradient8"
      id="linearGradient21"
      gradientUnits="userSpaceOnUse"
      x1="895.12372"
      y1="299.78497"
      x2="909.43408"
      y2="273.55054" /><linearGradient
      xlink:href="#linearGradient12"
      id="linearGradient22"
      gradientUnits="userSpaceOnUse"
      gradientTransform="translate(-41.513156,-14.564896)"
      x1="932.4046"
      y1="313.68549"
      x2="914.30933"
      y2="345.16675" /><linearGradient
      xlink:href="#linearGradient15"
      id="linearGradient23"
      gradientUnits="userSpaceOnUse"
      gradientTransform="translate(-2.2e-5)"
      x1="907.85272"
      y1="290.5275"
      x2="923.04596"
      y2="264.53293" /><linearGradient
      xlink:href="#linearGradient8"
      id="linearGradient25"
      gradientUnits="userSpaceOnUse"
      x1="895.12372"
      y1="299.78497"
      x2="909.43408"
      y2="273.55054" /><linearGradient
      xlink:href="#linearGradient12"
      id="linearGradient26"
      gradientUnits="userSpaceOnUse"
      gradientTransform="translate(-41.513156,-14.564896)"
      x1="932.4046"
      y1="313.68549"
      x2="914.30933"
      y2="345.16675" /><linearGradient
      xlink:href="#linearGradient15"
      id="linearGradient27"
      gradientUnits="userSpaceOnUse"
      gradientTransform="translate(-2.2e-5)"
      x1="907.85272"
      y1="290.5275"
      x2="923.04596"
      y2="264.53293" /><linearGradient
      xlink:href="#linearGradient8"
      id="linearGradient29"
      gradientUnits="userSpaceOnUse"
      x1="895.12372"
      y1="299.78497"
      x2="909.43408"
      y2="273.55054" /><linearGradient
      xlink:href="#linearGradient12"
      id="linearGradient30"
      gradientUnits="userSpaceOnUse"
      gradientTransform="translate(-41.513156,-14.564896)"
      x1="932.4046"
      y1="313.68549"
      x2="914.30933"
      y2="345.16675" /><linearGradient
      xlink:href="#linearGradient15"
      id="linearGradient31"
      gradientUnits="userSpaceOnUse"
      gradientTransform="translate(-2.2e-5)"
      x1="907.85272"
      y1="290.5275"
      x2="923.04596"
      y2="264.53293" /><linearGradient
      xlink:href="#linearGradient131"
      id="linearGradient132"
      x1="666.83984"
      y1="336.71103"
      x2="707.33386"
      y2="336.71103"
      gradientUnits="userSpaceOnUse" /><linearGradient
      xlink:href="#linearGradient134"
      id="linearGradient133"
      gradientUnits="userSpaceOnUse"
      x1="666.83984"
      y1="336.71103"
      x2="707.33386"
      y2="336.71103"
      gradientTransform="matrix(0.43583259,0,0,0.43583259,387.63201,189.96139)" /></defs><g
    id="layer2"
    transform="translate(-796.59454,-254.44397)"><g
      id="g160"><g
        id="g159"><g
          id="g15"><path
            style="fill:url(#linearGradient9);fill-rule:evenodd;stroke:none;paint-order:stroke markers fill"
            d="m 874.13693,333.50048 c 0,0 -26.38379,-53.46191 -2.77724,-71.97685 23.60656,-18.51495 55.31341,4.3973 62.48795,10.87753 7.17454,6.48023 11.3404,13.42333 10.64609,15.04339 -0.69431,1.62006 -3.00868,3.47155 -7.63741,4.3973 -4.62874,0.92575 -15.73771,1.38862 -20.36644,4.86018 -4.62874,3.47155 -17.35777,18.74638 -19.90357,35.40983 -2.54581,16.66345 -22.44938,1.38862 -22.44938,1.38862 z"
            id="path8" /><path
            style="fill:url(#linearGradient11);fill-rule:evenodd;stroke:none;paint-order:stroke markers fill"
            d="m 874.13693,333.50048 c 0,0 -26.38379,-53.46191 -2.77724,-71.97685 23.60656,-18.51495 55.31341,4.3973 62.48795,10.87753 7.17454,6.48023 11.3404,13.42333 10.64609,15.04339 -0.69431,1.62006 -3.00868,3.47155 -7.63741,4.3973 -4.62874,0.92575 -15.73771,1.38862 -20.36644,4.86018 -4.62874,3.47155 -17.35777,18.74638 -19.90357,35.40983 -2.54581,16.66345 -22.44938,1.38862 -22.44938,1.38862 z"
            id="path9" /><path
            style="fill:url(#linearGradient14);fill-rule:evenodd;stroke:none;paint-order:stroke markers fill"
            d="m 874.13691,333.50048 c 0,0 -26.38379,-53.46191 -2.77724,-71.97685 23.60656,-18.51495 55.31346,4.3973 62.48797,10.87753 7.17451,6.48023 11.34041,13.42333 10.64611,15.04339 -0.6943,1.62006 -3.0087,3.47155 -7.63741,4.3973 -4.6288,0.92575 -15.73775,1.38862 -20.36648,4.86018 -4.62874,3.47155 -17.35777,18.74638 -19.90357,35.40983 -2.54581,16.66345 -22.44938,1.38862 -22.44938,1.38862 z"
            id="path12" /></g><g
          id="g17"
          transform="rotate(69.973696,886.35366,348.84452)"><path
            style="fill:url(#linearGradient17);fill-rule:evenodd;stroke:none;paint-order:stroke markers fill"
            d="m 874.13693,333.50048 c 0,0 -26.38379,-53.46191 -2.77724,-71.97685 23.60656,-18.51495 55.31341,4.3973 62.48795,10.87753 7.17454,6.48023 11.3404,13.42333 10.64609,15.04339 -0.69431,1.62006 -3.00868,3.47155 -7.63741,4.3973 -4.62874,0.92575 -15.73771,1.38862 -20.36644,4.86018 -4.62874,3.47155 -17.35777,18.74638 -19.90357,35.40983 -2.54581,16.66345 -22.44938,1.38862 -22.44938,1.38862 z"
            id="path15" /><path
            style="fill:url(#linearGradient18);fill-rule:evenodd;stroke:none;paint-order:stroke markers fill"
            d="m 874.13693,333.50048 c 0,0 -26.38379,-53.46191 -2.77724,-71.97685 23.60656,-18.51495 55.31341,4.3973 62.48795,10.87753 7.17454,6.48023 11.3404,13.42333 10.64609,15.04339 -0.69431,1.62006 -3.00868,3.47155 -7.63741,4.3973 -4.62874,0.92575 -15.73771,1.38862 -20.36644,4.86018 -4.62874,3.47155 -17.35777,18.74638 -19.90357,35.40983 -2.54581,16.66345 -22.44938,1.38862 -22.44938,1.38862 z"
            id="path16" /><path
            style="fill:url(#linearGradient19);fill-rule:evenodd;stroke:none;paint-order:stroke markers fill"
            d="m 874.13691,333.50048 c 0,0 -26.38379,-53.46191 -2.77724,-71.97685 23.60656,-18.51495 55.31346,4.3973 62.48797,10.87753 7.17451,6.48023 11.34041,13.42333 10.64611,15.04339 -0.6943,1.62006 -3.0087,3.47155 -7.63741,4.3973 -4.6288,0.92575 -15.73775,1.38862 -20.36648,4.86018 -4.62874,3.47155 -17.35777,18.74638 -19.90357,35.40983 -2.54581,16.66345 -22.44938,1.38862 -22.44938,1.38862 z"
            id="path17" /></g><g
          id="g21"
          transform="rotate(144.90095,886.38754,348.24984)"><path
            style="fill:url(#linearGradient21);fill-rule:evenodd;stroke:none;paint-order:stroke markers fill"
            d="m 874.13693,333.50048 c 0,0 -26.38379,-53.46191 -2.77724,-71.97685 23.60656,-18.51495 55.31341,4.3973 62.48795,10.87753 7.17454,6.48023 11.3404,13.42333 10.64609,15.04339 -0.69431,1.62006 -3.00868,3.47155 -7.63741,4.3973 -4.62874,0.92575 -15.73771,1.38862 -20.36644,4.86018 -4.62874,3.47155 -17.35777,18.74638 -19.90357,35.40983 -2.54581,16.66345 -22.44938,1.38862 -22.44938,1.38862 z"
            id="path19" /><path
            style="fill:url(#linearGradient22);fill-rule:evenodd;stroke:none;paint-order:stroke markers fill"
            d="m 874.13693,333.50048 c 0,0 -26.38379,-53.46191 -2.77724,-71.97685 23.60656,-18.51495 55.31341,4.3973 62.48795,10.87753 7.17454,6.48023 11.3404,13.42333 10.64609,15.04339 -0.69431,1.62006 -3.00868,3.47155 -7.63741,4.3973 -4.62874,0.92575 -15.73771,1.38862 -20.36644,4.86018 -4.62874,3.47155 -17.35777,18.74638 -19.90357,35.40983 -2.54581,16.66345 -22.44938,1.38862 -22.44938,1.38862 z"
            id="path20" /><path
            style="fill:url(#linearGradient23);fill-rule:evenodd;stroke:none;paint-order:stroke markers fill"
            d="m 874.13691,333.50048 c 0,0 -26.38379,-53.46191 -2.77724,-71.97685 23.60656,-18.51495 55.31346,4.3973 62.48797,10.87753 7.17451,6.48023 11.34041,13.42333 10.64611,15.04339 -0.6943,1.62006 -3.0087,3.47155 -7.63741,4.3973 -4.6288,0.92575 -15.73775,1.38862 -20.36648,4.86018 -4.62874,3.47155 -17.35777,18.74638 -19.90357,35.40983 -2.54581,16.66345 -22.44938,1.38862 -22.44938,1.38862 z"
            id="path21" /></g><g
          id="g25"
          transform="rotate(-143.31985,886.33481,348.2235)"><path
            style="fill:url(#linearGradient25);fill-rule:evenodd;stroke:none;paint-order:stroke markers fill"
            d="m 874.13693,333.50048 c 0,0 -26.38379,-53.46191 -2.77724,-71.97685 23.60656,-18.51495 55.31341,4.3973 62.48795,10.87753 7.17454,6.48023 11.3404,13.42333 10.64609,15.04339 -0.69431,1.62006 -3.00868,3.47155 -7.63741,4.3973 -4.62874,0.92575 -15.73771,1.38862 -20.36644,4.86018 -4.62874,3.47155 -17.35777,18.74638 -19.90357,35.40983 -2.54581,16.66345 -22.44938,1.38862 -22.44938,1.38862 z"
            id="path23" /><path
            style="fill:url(#linearGradient26);fill-rule:evenodd;stroke:none;paint-order:stroke markers fill"
            d="m 874.13693,333.50048 c 0,0 -26.38379,-53.46191 -2.77724,-71.97685 23.60656,-18.51495 55.31341,4.3973 62.48795,10.87753 7.17454,6.48023 11.3404,13.42333 10.64609,15.04339 -0.69431,1.62006 -3.00868,3.47155 -7.63741,4.3973 -4.62874,0.92575 -15.73771,1.38862 -20.36644,4.86018 -4.62874,3.47155 -17.35777,18.74638 -19.90357,35.40983 -2.54581,16.66345 -22.44938,1.38862 -22.44938,1.38862 z"
            id="path24" /><path
            style="fill:url(#linearGradient27);fill-rule:evenodd;stroke:none;paint-order:stroke markers fill"
            d="m 874.13691,333.50048 c 0,0 -26.38379,-53.46191 -2.77724,-71.97685 23.60656,-18.51495 55.31346,4.3973 62.48797,10.87753 7.17451,6.48023 11.34041,13.42333 10.64611,15.04339 -0.6943,1.62006 -3.0087,3.47155 -7.63741,4.3973 -4.6288,0.92575 -15.73775,1.38862 -20.36648,4.86018 -4.62874,3.47155 -17.35777,18.74638 -19.90357,35.40983 -2.54581,16.66345 -22.44938,1.38862 -22.44938,1.38862 z"
            id="path25" /></g><g
          id="g29"
          transform="rotate(-76.367165,886.24444,347.07861)"><path
            style="fill:url(#linearGradient29);fill-rule:evenodd;stroke:none;paint-order:stroke markers fill"
            d="m 874.13693,333.50048 c 0,0 -26.38379,-53.46191 -2.77724,-71.97685 23.60656,-18.51495 55.31341,4.3973 62.48795,10.87753 7.17454,6.48023 11.3404,13.42333 10.64609,15.04339 -0.69431,1.62006 -3.00868,3.47155 -7.63741,4.3973 -4.62874,0.92575 -15.73771,1.38862 -20.36644,4.86018 -4.62874,3.47155 -17.35777,18.74638 -19.90357,35.40983 -2.54581,16.66345 -22.44938,1.38862 -22.44938,1.38862 z"
            id="path27" /><path
            style="fill:url(#linearGradient30);fill-rule:evenodd;stroke:none;paint-order:stroke markers fill"
            d="m 874.13693,333.50048 c 0,0 -26.38379,-53.46191 -2.77724,-71.97685 23.60656,-18.51495 55.31341,4.3973 62.48795,10.87753 7.17454,6.48023 11.3404,13.42333 10.64609,15.04339 -0.69431,1.62006 -3.00868,3.47155 -7.63741,4.3973 -4.62874,0.92575 -15.73771,1.38862 -20.36644,4.86018 -4.62874,3.47155 -17.35777,18.74638 -19.90357,35.40983 -2.54581,16.66345 -22.44938,1.38862 -22.44938,1.38862 z"
            id="path28" /><path
            style="fill:url(#linearGradient31);fill-rule:evenodd;stroke:none;paint-order:stroke markers fill"
            d="m 874.13691,333.50048 c 0,0 -26.38379,-53.46191 -2.77724,-71.97685 23.60656,-18.51495 55.31346,4.3973 62.48797,10.87753 7.17451,6.48023 11.34041,13.42333 10.64611,15.04339 -0.6943,1.62006 -3.0087,3.47155 -7.63741,4.3973 -4.6288,0.92575 -15.73775,1.38862 -20.36648,4.86018 -4.62874,3.47155 -17.35777,18.74638 -19.90357,35.40983 -2.54581,16.66345 -22.44938,1.38862 -22.44938,1.38862 z"
            id="path29" /></g></g><g
        id="g158"
        transform="translate(201.094,9.5108021)"><circle
          style="display:inline;opacity:1;fill:url(#linearGradient132);fill-opacity:1;fill-rule:evenodd;stroke:#000000;stroke-width:4;stroke-dasharray:none;paint-order:stroke markers fill"
          id="path131"
          cx="687.08685"
          cy="336.71103"
          r="18.247038" /><circle
          style="display:inline;opacity:1;fill:url(#linearGradient133);fill-opacity:1;fill-rule:evenodd;stroke:#000000;stroke-width:3.06514;stroke-dasharray:none;paint-order:stroke markers fill"
          id="circle132"
          cx="687.08685"
          cy="336.71103"
          r="7.9526539" /><circle
          style="opacity:1;fill:#000000;fill-opacity:1;fill-rule:evenodd;stroke:none;stroke-width:12.7766;stroke-dasharray:none;paint-order:stroke markers fill"
          id="path156"
          cx="700.73285"
          cy="336.71103"
          r="2.7721615" /><circle
          style="opacity:1;fill:#000000;fill-opacity:1;fill-rule:evenodd;stroke:none;stroke-width:12.7766;stroke-dasharray:none;paint-order:stroke markers fill"
          id="circle156"
          cx="672.94275"
          cy="336.71103"
          r="2.7721615" /><circle
          style="opacity:1;fill:#000000;fill-opacity:1;fill-rule:evenodd;stroke:none;stroke-width:12.7766;stroke-dasharray:none;paint-order:stroke markers fill"
          id="circle157"
          cx="687.08685"
          cy="322.13049"
          r="2.7721615" /><circle
          style="opacity:1;fill:#000000;fill-opacity:1;fill-rule:evenodd;stroke:none;stroke-width:12.7766;stroke-dasharray:none;paint-order:stroke markers fill"
          id="circle158"
          cx="687.08685"
          cy="350.59723"
          r="2.7721615" /></g></g></g></svg>
