<svg width="512" height="512" viewBox="0 0 512 512" fill="none" xmlns="http://www.w3.org/2000/svg">
<g id="Heading Circular label">
<g id="container-content">
<g id="container-instrument">
<g id="Conning compass L">
<g id="Compass">
<g id="Compass watchface">
<g id="Watchface">
<g id="frame">
<path id="frame_2" d="M256 456.5C366.733 456.5 456.5 366.733 456.5 256C456.5 145.267 366.733 55.5 256 55.5C145.267 55.5 55.5 145.267 55.5 256C55.5 366.733 145.267 456.5 256 456.5ZM431.5 256C431.5 352.926 352.926 431.5 256 431.5C159.074 431.5 80.5 352.926 80.5 256C80.5 159.074 159.074 80.5 256 80.5C352.926 80.5 431.5 159.074 431.5 256Z" fill="white" stroke="#D9D9D9"/>
</g>
<path id="center-cross" d="M256 80V432M432 256H80" stroke="#D9D9D9"/>
<g id="secondary-tick-marks">
<path id="tick-marks" d="M436 256.002H452M383.279 383.281L394.593 394.595M256 436.002V452.002M128.721 383.281L117.407 394.594M76 256H60M128.721 128.721L117.407 117.407M256 76V60M383.279 128.723L394.593 117.409" stroke="#D9D9D9"/>
</g>
<g id="primary-tick-marks">
<path id="tick-marks_2" d="M256 76V56M256 456V436M436 256H456M56 256H76" stroke="#D9D9D9"/>
</g>
<g id="labels">
<g id="90&#194;&#176;">
<g id="LabelFrame">
<path id="north-arrow" fill-rule="evenodd" clip-rule="evenodd" d="M232.406 49.3234L256 10L279.594 49.3235C271.85 48.4491 263.977 48 256 48C248.022 48 240.15 48.4491 232.406 49.3234Z" fill="#707070"/>
<path id="N" d="M260.784 38H257.872L252.768 29.264H252.704C252.715 29.52 252.725 29.7813 252.736 30.048C252.747 30.3147 252.757 30.5867 252.768 30.864C252.789 31.1307 252.805 31.4027 252.816 31.68C252.827 31.9573 252.837 32.2347 252.848 32.512V38H250.784V26.576H253.68L258.768 35.232H258.816C258.805 34.9867 258.795 34.736 258.784 34.48C258.773 34.2133 258.763 33.952 258.752 33.696C258.752 33.4293 258.747 33.1627 258.736 32.896C258.725 32.6293 258.715 32.3627 258.704 32.096V26.576H260.784V38Z" fill="white"/>
</g>
<g id="LabelFrame_2">
<path id="S" d="M260.254 482.848C260.254 483.52 260.088 484.107 259.758 484.608C259.427 485.099 258.947 485.483 258.318 485.76C257.699 486.027 256.947 486.16 256.062 486.16C255.667 486.16 255.278 486.133 254.894 486.08C254.51 486.027 254.147 485.952 253.806 485.856C253.464 485.76 253.144 485.637 252.846 485.488V483.328C253.368 483.563 253.918 483.776 254.494 483.968C255.08 484.149 255.662 484.24 256.238 484.24C256.654 484.24 256.99 484.187 257.246 484.08C257.502 483.963 257.688 483.808 257.806 483.616C257.934 483.424 257.998 483.205 257.998 482.96C257.998 482.661 257.896 482.411 257.694 482.208C257.502 481.995 257.235 481.797 256.894 481.616C256.563 481.435 256.168 481.243 255.71 481.04C255.422 480.901 255.118 480.741 254.798 480.56C254.488 480.379 254.19 480.16 253.902 479.904C253.624 479.637 253.4 479.323 253.23 478.96C253.059 478.587 252.974 478.144 252.974 477.632C252.974 476.949 253.128 476.373 253.438 475.904C253.758 475.424 254.206 475.056 254.782 474.8C255.358 474.544 256.035 474.416 256.814 474.416C257.411 474.416 257.976 474.485 258.51 474.624C259.054 474.763 259.608 474.955 260.174 475.2L259.438 477.008C258.926 476.805 258.456 476.645 258.03 476.528C257.614 476.411 257.182 476.352 256.734 476.352C256.424 476.352 256.152 476.405 255.918 476.512C255.694 476.608 255.523 476.747 255.406 476.928C255.288 477.099 255.23 477.307 255.23 477.552C255.23 477.84 255.31 478.08 255.47 478.272C255.63 478.464 255.87 478.651 256.19 478.832C256.52 479.003 256.936 479.205 257.438 479.44C258.035 479.707 258.542 479.989 258.958 480.288C259.374 480.587 259.694 480.939 259.918 481.344C260.142 481.749 260.254 482.251 260.254 482.848Z" fill="#707070"/>
</g>
<g id="LabelFrame_3">
<path id="E" d="M484.023 262H477.479V250.576H484.023V252.48H479.783V255.104H483.735V257.008H479.783V260.08H484.023V262Z" fill="#707070"/>
</g>
<g id="LabelFrame_4">
<path id="W" d="M39.6729 250.576L36.7449 262H34.1529L32.5209 255.824C32.4889 255.696 32.4462 255.515 32.3929 255.28C32.3395 255.045 32.2809 254.795 32.2169 254.528C32.1635 254.261 32.1155 254.011 32.0729 253.776C32.0302 253.531 32.0035 253.339 31.9929 253.2C31.9822 253.339 31.9502 253.531 31.8969 253.776C31.8542 254.011 31.8062 254.261 31.7529 254.528C31.6995 254.784 31.6462 255.035 31.5929 255.28C31.5395 255.515 31.4915 255.707 31.4489 255.856L29.8489 262H27.2409L24.3129 250.576H26.6009L28.0889 256.896C28.1422 257.088 28.1955 257.312 28.2489 257.568C28.3022 257.824 28.3555 258.091 28.4089 258.368C28.4622 258.645 28.5102 258.917 28.5529 259.184C28.5955 259.44 28.6275 259.664 28.6489 259.856C28.6702 259.653 28.7022 259.424 28.7449 259.168C28.7875 258.912 28.8355 258.651 28.8889 258.384C28.9422 258.117 28.9955 257.867 29.0489 257.632C29.1022 257.387 29.1502 257.189 29.1929 257.04L30.8889 250.576H33.0969L34.8089 257.04C34.8409 257.189 34.8835 257.387 34.9369 257.632C34.9902 257.867 35.0435 258.123 35.0969 258.4C35.1502 258.667 35.1982 258.928 35.2409 259.184C35.2835 259.44 35.3155 259.664 35.3369 259.856C35.3689 259.589 35.4169 259.28 35.4809 258.928C35.5449 258.565 35.6142 258.203 35.6889 257.84C35.7742 257.467 35.8435 257.152 35.8969 256.896L37.4009 250.576H39.6729Z" fill="#707070"/>
</g>
</g>
</g>
</g>
</g>
<g id="ROT">
<path id="frame_3" fill-rule="evenodd" clip-rule="evenodd" d="M194.177 394.859C270.866 429.003 360.715 394.514 394.859 317.824C429.004 241.134 394.514 151.286 317.825 117.141C241.135 82.9967 151.286 117.486 117.142 194.176C82.9972 270.866 117.487 360.714 194.177 394.859ZM184.415 416.784C273.213 456.32 377.249 416.384 416.785 327.586C456.32 238.787 416.385 134.752 327.586 95.216C238.788 55.6804 134.752 95.6158 95.2166 184.414C55.6809 273.213 95.6164 377.248 184.415 416.784Z" fill="#F0F0F0"/>
<circle id="border-inside" cx="256" cy="256" r="152.5" transform="rotate(24 256 256)" stroke="#D9D9D9"/>
<circle id="border-outisde" cx="256.001" cy="256" r="175.5" transform="rotate(24 256.001 256)" stroke="#D9D9D9"/>
<g id="rot-dots">
<g id="Frame 11">
<ellipse id="Ellipse 14" cx="322.705" cy="106.179" rx="8" ry="8" transform="rotate(24 322.705 106.179)" fill="#666666"/>
</g>
<g id="Frame 12">
<ellipse id="Ellipse 14_2" cx="419.102" cy="273.143" rx="8" ry="8" transform="rotate(96 419.102 273.143)" fill="#666666"/>
</g>
<g id="Frame 14">
<ellipse id="Ellipse 14_3" cx="134.124" cy="146.263" rx="8" ry="8" transform="rotate(-48 134.124 146.263)" fill="#666666"/>
</g>
<g id="Frame 13">
<ellipse id="Ellipse 14_4" cx="113.972" cy="338" rx="8" ry="8" transform="rotate(-120 113.972 338)" fill="#666666"/>
</g>
<g id="Frame 15">
<ellipse id="Ellipse 14_5" cx="290.098" cy="416.416" rx="8" ry="8" transform="rotate(168 290.098 416.416)" fill="#666666"/>
</g>
</g>
</g>
<g id="Heading">
<g id="Ship">
<g id="Ship - Top">
<path id="Ship_2" d="M245.361 220.888C254.435 200.505 279.069 187.458 285.284 190.225C291.499 192.992 298.588 219.349 289.211 240.411L251.079 326.056C249.732 329.083 246.185 330.444 243.158 329.097L210.27 314.454C207.243 313.106 205.881 309.56 207.229 306.532L245.361 220.888Z" fill="white" stroke="#707070"/>
<path id="Cross" fill-rule="evenodd" clip-rule="evenodd" d="M256.659 255.747L283.609 267.745L283.202 268.659L228.389 244.255L228.796 243.341L255.745 255.34L287.267 184.54L288.181 184.947L256.659 255.747Z" fill="#707070"/>
</g>
</g>
</g>
</g>
</g>
<g id="container-data">
<rect x="136.5" y="136.5" width="239" height="239" rx="119.5" fill="white"/>
<rect x="136.5" y="136.5" width="239" height="239" rx="119.5" stroke="#D9D9D9"/>
</g>
</g>
</g>
</g>
</svg>

