<?xml version="1.0" encoding="UTF-8" standalone="no"?>
<svg
   width="398.09393"
   height="410.41705"
   viewBox="0 0 398.09393 410.41705"
   fill="none"
   version="1.1"
   id="svg1"
   sodipodi:docname="Ship.svg"
   xml:space="preserve"
   xmlns:inkscape="http://www.inkscape.org/namespaces/inkscape"
   xmlns:sodipodi="http://sodipodi.sourceforge.net/DTD/sodipodi-0.dtd"
   xmlns="http://www.w3.org/2000/svg"
   xmlns:svg="http://www.w3.org/2000/svg"><defs
     id="defs1" /><sodipodi:namedview
     id="namedview1"
     pagecolor="#ffffff"
     bordercolor="#000000"
     borderopacity="0.25"
     inkscape:showpageshadow="2"
     inkscape:pageopacity="0.0"
     inkscape:pagecheckerboard="0"
     inkscape:deskcolor="#d1d1d1"
     inkscape:zoom="0.5430073"
     inkscape:cx="1138.1062"
     inkscape:cy="418.96306"
     inkscape:window-width="1920"
     inkscape:window-height="1009"
     inkscape:window-x="1912"
     inkscape:window-y="-8"
     inkscape:window-maximized="1"
     inkscape:current-layer="svg1" /><g
     id="g6"
     transform="translate(-967.76593,-151.09814)"><g
       id="g5"><g
         style="fill:none"
         id="g1"
         transform="translate(966.81282,162.96818)"><path
           d="m 200,398.047 c 109.654,0 198.547,-88.893 198.547,-198.547 C 398.547,89.8456 309.654,0.953125 200,0.953125 90.3456,0.953125 1.45312,89.8456 1.45312,199.5 1.45312,309.154 90.3456,398.047 200,398.047 Z M 373.781,199.5 c 0,95.977 -77.804,173.781 -173.781,173.781 -95.977,0 -173.7812,-77.804 -173.7812,-173.781 0,-95.977 77.8042,-173.7812 173.7812,-173.7812 95.977,0 173.781,77.8042 173.781,173.7812 z"
           fill="#ffffff"
           stroke="#d9d9d9"
           id="path1-2" /></g><path
         d="m 1170.5169,552.64727 c 0,0.672 -0.166,1.259 -0.496,1.76 -0.331,0.491 -0.811,0.875 -1.44,1.152 -0.619,0.267 -1.371,0.4 -2.256,0.4 -0.395,0 -0.784,-0.027 -1.168,-0.08 -0.384,-0.053 -0.747,-0.128 -1.088,-0.224 -0.342,-0.096 -0.662,-0.219 -0.96,-0.368 v -2.16 c 0.522,0.235 1.072,0.448 1.648,0.64 0.586,0.181 1.168,0.272 1.744,0.272 0.416,0 0.752,-0.053 1.008,-0.16 0.256,-0.117 0.442,-0.272 0.56,-0.464 0.128,-0.192 0.192,-0.411 0.192,-0.656 0,-0.299 -0.102,-0.549 -0.304,-0.752 -0.192,-0.213 -0.459,-0.411 -0.8,-0.592 -0.331,-0.181 -0.726,-0.373 -1.184,-0.576 -0.288,-0.139 -0.592,-0.299 -0.912,-0.48 -0.31,-0.181 -0.608,-0.4 -0.896,-0.656 -0.278,-0.267 -0.502,-0.581 -0.672,-0.944 -0.171,-0.373 -0.256,-0.816 -0.256,-1.328 0,-0.683 0.154,-1.259 0.464,-1.728 0.32,-0.48 0.768,-0.848 1.344,-1.104 0.576,-0.256 1.253,-0.384 2.032,-0.384 0.597,0 1.162,0.069 1.696,0.208 0.544,0.139 1.098,0.331 1.664,0.576 l -0.736,1.808 c -0.512,-0.203 -0.982,-0.363 -1.408,-0.48 -0.416,-0.117 -0.848,-0.176 -1.296,-0.176 -0.31,0 -0.582,0.053 -0.816,0.16 -0.224,0.096 -0.395,0.235 -0.512,0.416 -0.118,0.171 -0.176,0.379 -0.176,0.624 0,0.288 0.08,0.528 0.24,0.72 0.16,0.192 0.4,0.379 0.72,0.56 0.33,0.171 0.746,0.373 1.248,0.608 0.597,0.267 1.104,0.549 1.52,0.848 0.416,0.299 0.736,0.651 0.96,1.056 0.224,0.405 0.336,0.907 0.336,1.504 z"
         fill="#1a1a1a"
         id="path3-1" /><path
         d="m 1357.1965,368.18024 h -6.5439 v -11.424 h 6.5439 v 1.904 h -4.2401 v 2.624 h 3.952 v 1.904 h -3.952 v 3.072 h 4.2401 z"
         fill="#1a1a1a"
         id="path4-2" /><path
         d="m 986.91939,356.75624 -2.928,11.424 h -2.592 l -1.632,-6.176 c -0.032,-0.128 -0.075,-0.309 -0.128,-0.544 -0.053,-0.235 -0.112,-0.485 -0.176,-0.752 -0.053,-0.267 -0.101,-0.517 -0.144,-0.752 -0.043,-0.245 -0.069,-0.437 -0.08,-0.576 -0.011,0.139 -0.043,0.331 -0.096,0.576 -0.043,0.235 -0.091,0.485 -0.144,0.752 -0.053,0.256 -0.107,0.507 -0.16,0.752 -0.053,0.235 -0.101,0.427 -0.144,0.576 l -1.6,6.144 h -2.608 l -2.928,-11.424 h 2.288 l 1.488,6.32 c 0.053,0.192 0.107,0.416 0.16,0.672 0.053,0.256 0.107,0.523 0.16,0.8 0.053,0.277 0.101,0.549 0.144,0.816 0.043,0.256 0.075,0.48 0.096,0.672 0.021,-0.203 0.053,-0.432 0.096,-0.688 0.043,-0.256 0.091,-0.517 0.144,-0.784 0.053,-0.267 0.107,-0.517 0.16,-0.752 0.053,-0.245 0.101,-0.443 0.144,-0.592 l 1.696,-6.464 h 2.208 l 1.712,6.464 c 0.032,0.149 0.075,0.347 0.128,0.592 0.053,0.235 0.107,0.491 0.16,0.768 0.053,0.267 0.101,0.528 0.144,0.784 0.043,0.256 0.075,0.48 0.096,0.672 0.032,-0.267 0.08,-0.576 0.144,-0.928 0.064,-0.363 0.133,-0.725 0.208,-1.088 0.085,-0.373 0.155,-0.688 0.208,-0.944 l 1.504,-6.32 z"
         fill="#1a1a1a"
         id="path5-6" /><path
         style="fill:none;fill-rule:evenodd;stroke:#d9d9d9;stroke-width:1;stroke-dasharray:none;stroke-opacity:1;paint-order:stroke markers fill"
         d="m 1166.8128,188.68698 v 347.5622"
         id="path4" /><path
         style="fill:none;fill-rule:evenodd;stroke:#d9d9d9;stroke-width:1;stroke-dasharray:none;stroke-opacity:1;paint-order:stroke markers fill"
         d="m 993.0317,362.46808 h 347.5622"
         id="path5" /><g
         id="g3"
         transform="translate(758.096,77.79888)"><path
           fill-rule="evenodd"
           clip-rule="evenodd"
           d="m 385.12287,112.62227 23.594,-39.323 23.594,39.323 c -7.744,-0.874 -15.617,-1.323 -23.594,-1.323 -7.978,0 -15.85,0.449 -23.594,1.323 z"
           fill="#333333"
           id="path1-26" /><path
           d="m 414.21987,101.29927 h -2.912 l -5.104,-8.736 h -0.064 c 0.011,0.256 0.021,0.517 0.032,0.784 0.011,0.267 0.021,0.539 0.032,0.816 0.021,0.267 0.037,0.539 0.048,0.816 0.011,0.277 0.021,0.555 0.032,0.832 v 5.488 h -2.064 v -11.424 h 2.896 l 5.088,8.656 h 0.048 c -0.011,-0.245 -0.021,-0.496 -0.032,-0.752 -0.011,-0.267 -0.021,-0.528 -0.032,-0.784 0,-0.267 -0.005,-0.533 -0.016,-0.8 -0.011,-0.267 -0.021,-0.533 -0.032,-0.8 v -5.52 h 2.08 z"
           fill="#ffffff"
           id="path2-3" /></g></g></g></svg>
