<svg width="27" height="68" viewBox="0 0 27 68" fill="none" xmlns="http://www.w3.org/2000/svg">
<path d="M1 21.2812C1 11.0554 9.95669 1 13.5 1C17.0433 1 26 10.7145 26 21.2812V64.25C26 65.7688 24.6009 67 22.875 67H4.125C2.39911 67 1 65.7688 1 64.25V21.2812Z" fill="white" stroke="#707070"/>
<path d="M1 21.2812C1 11.0554 9.95669 1 13.5 1C17.0433 1 26 10.7145 26 21.2812V64.25C26 65.7688 24.6009 67 22.875 67H4.125C2.39911 67 1 65.7688 1 64.25V21.2812Z" fill="white" stroke="#707070"/>
<path fill-rule="evenodd" clip-rule="evenodd" d="M9.18974 10.3785C9.04268 10.4046 8.92651 10.5179 8.8967 10.6643L7.67131 16.6811L6.69016 21.4986C6.54929 22.1903 7.15011 22.8063 7.84514 22.6827L10.295 22.2471L16.7945 58.7949L18.7437 58.4482L12.2442 21.9004L14.694 21.4648C15.389 21.3412 15.7407 20.5558 15.3699 19.955L9.56335 10.5457C9.48491 10.4186 9.3368 10.3523 9.18974 10.3785Z" fill="#707070"/>
</svg>
