<svg width="27" height="68" viewBox="0 0 27 68" fill="none" xmlns="http://www.w3.org/2000/svg">
<path d="M1 21.2812C1 11.0554 9.95669 1 13.5 1C17.0433 1 26 10.7145 26 21.2812V64.25C26 65.7688 24.6009 67 22.875 67H4.125C2.39911 67 1 65.7688 1 64.25V21.2812Z" fill="white" stroke="#707070"/>
<path d="M1 21.2812C1 11.0554 9.95669 1 13.5 1C17.0433 1 26 10.7145 26 21.2812V64.25C26 65.7688 24.6009 67 22.875 67H4.125C2.39911 67 1 65.7688 1 64.25V21.2812Z" fill="white" stroke="#707070"/>
<path fill-rule="evenodd" clip-rule="evenodd" d="M18.0933 10.4384C17.9466 10.4103 17.7976 10.4746 17.7175 10.6006L14.4228 15.7821L11.7847 19.9309C11.4059 20.5266 11.7469 21.3166 12.4402 21.4496L14.884 21.9182L7.89287 58.3752L9.83724 58.748L16.8284 22.2911L19.2721 22.7597C19.9654 22.8926 20.5745 22.2848 20.4429 21.5912L18.3825 10.7282C18.3547 10.5814 18.24 10.4665 18.0933 10.4384Z" fill="#707070"/>
</svg>

